<?xml version="1.0" encoding="utf-8"?>
<!-- Generator: Adobe Illustrator 18.1.1, SVG Export Plug-In . SVG Version: 6.00 Build 0)  -->
<svg version="1.1" id="圖層_1" xmlns="http://www.w3.org/2000/svg" xmlns:xlink="http://www.w3.org/1999/xlink" x="0px" y="0px"
	 viewBox="0 0 150 102.9" enable-background="new 0 0 150 102.9" xml:space="preserve">
<g>
	<g>
		<g>
			<linearGradient id="SVGID_1_" gradientUnits="userSpaceOnUse" x1="281.0429" y1="149.3466" x2="281.0429" y2="81.3587">
				<stop  offset="0" style="stop-color:#FF7F7F"/>
				<stop  offset="0.1494" style="stop-color:#F3742A"/>
				<stop  offset="0.3005" style="stop-color:#FFFF00"/>
				<stop  offset="0.4516" style="stop-color:#00DD03"/>
				<stop  offset="0.5829" style="stop-color:#05C1FF"/>
				<stop  offset="0.734" style="stop-color:#00FFFF"/>
				<stop  offset="0.8818" style="stop-color:#A161E4"/>
				<stop  offset="1" style="stop-color:#000000"/>
			</linearGradient>
			<path fill="url(#SVGID_1_)" d="M318.4,148.8c0,0,0.9,0,2.6-0.1c1.7-0.1,4.1-0.2,7.2-0.8c1.5-0.3,3.2-0.6,5-1.2
				c1.8-0.5,3.7-1.2,5.6-2.2c1.9-0.9,3.9-2.1,5.8-3.6c1.9-1.5,3.7-3.3,5.3-5.4c3.2-4.2,5.2-9.8,5.7-15.9c0.3-3,0.3-6.2,0-9.3
				c-0.1-1.6-0.4-3.2-0.8-4.7c-0.4-1.6-0.9-3.1-1.5-4.7c-0.6-1.5-1.4-3-2.3-4.4c-0.9-1.4-1.9-2.7-3.1-4c-1.1-1.2-2.5-2.3-3.8-3.4
				c-1.4-1-2.8-1.9-4.4-2.7c-6.2-3.1-13.4-4.2-20.4-4.3c-14.2,0-28.5-0.1-41.8-0.1c-13.3-0.1-25.8-0.1-36.5-0.2
				c-21.4-0.2-35.6-0.3-35.6-0.3s14.2-0.1,35.6-0.3c10.7,0,23.1-0.1,36.5-0.2c13.3,0,27.6,0,41.8-0.1c7.1,0.1,14.4,1.2,20.8,4.4
				c1.6,0.8,3.1,1.7,4.5,2.8c1.4,1,2.7,2.2,3.9,3.5c1.2,1.3,2.3,2.6,3.2,4.1c0.9,1.5,1.7,3,2.3,4.6c0.6,1.6,1.1,3.2,1.5,4.8
				c0.3,1.6,0.6,3.2,0.7,4.9c0.3,3.2,0.2,6.4-0.1,9.5c-0.6,6.1-2.7,11.8-6,16.1c-3.2,4.4-7.4,7.2-11.4,9.1c-2,0.9-3.9,1.6-5.7,2.1
				c-1.8,0.5-3.5,0.8-5.1,1.1c-3.1,0.5-5.5,0.6-7.2,0.6C319.3,148.8,318.4,148.8,318.4,148.8z"/>
		</g>
		<g>
			<linearGradient id="SVGID_2_" gradientUnits="userSpaceOnUse" x1="282.2449" y1="152.1112" x2="282.2449" y2="78.5941">
				<stop  offset="0" style="stop-color:#FF7F7F"/>
				<stop  offset="0.1494" style="stop-color:#F3742A"/>
				<stop  offset="0.3005" style="stop-color:#FFFF00"/>
				<stop  offset="0.4516" style="stop-color:#00DD03"/>
				<stop  offset="0.5829" style="stop-color:#05C1FF"/>
				<stop  offset="0.734" style="stop-color:#00FFFF"/>
				<stop  offset="0.8818" style="stop-color:#A161E4"/>
				<stop  offset="1" style="stop-color:#000000"/>
			</linearGradient>
			<path fill="url(#SVGID_2_)" d="M205.5,79.1c0,0,14.8-0.1,36.9-0.3c11.1,0,24-0.1,37.8-0.2c6.9,0,14.1,0,21.3,0c3.6,0,7.3,0,11,0
				c3.7,0,7.3-0.1,11.1,0.2c7.4,0.5,14.9,2.3,21.1,6.4c1.6,1,3,2.1,4.3,3.4c1.3,1.2,2.6,2.6,3.6,4.1c1.1,1.4,2,3,2.8,4.6
				c0.8,1.6,1.4,3.2,1.9,4.9c1,3.3,1.5,6.8,1.7,10.1c0.2,3.3,0,6.6-0.5,9.8c-0.9,6.3-3.3,12.1-6.8,16.5c-3.5,4.4-7.8,7.3-12,9.2
				c-4.1,1.9-8,2.7-11.2,3.2c-3.2,0.5-5.7,0.6-7.5,0.7c-1.7,0-2.7,0-2.7,0s0.9,0,2.6-0.1c1.7-0.1,4.3-0.2,7.4-0.8
				c3.2-0.5,7-1.5,11.1-3.4c4-1.9,8.3-4.9,11.7-9.2c3.4-4.3,5.7-10,6.5-16.2c0.4-3.1,0.6-6.4,0.4-9.7c-0.2-3.3-0.6-6.7-1.7-9.9
				c-0.5-1.6-1.1-3.2-1.9-4.8c-0.8-1.6-1.7-3-2.7-4.4c-1.1-1.4-2.2-2.7-3.5-3.9c-1.3-1.2-2.7-2.3-4.2-3.3c-6-3.9-13.4-5.7-20.6-6.2
				c-3.6-0.3-7.3-0.2-11-0.2c-3.7,0-7.3,0-11,0c-7.3,0-14.4,0-21.3,0c-13.8-0.1-26.7-0.1-37.8-0.2C220.2,79.2,205.5,79.1,205.5,79.1
				z"/>
		</g>
		<g>
			<linearGradient id="SVGID_3_" gradientUnits="userSpaceOnUse" x1="283.4417" y1="154.8758" x2="283.4417" y2="75.8295">
				<stop  offset="0" style="stop-color:#FF7F7F"/>
				<stop  offset="0.1494" style="stop-color:#F3742A"/>
				<stop  offset="0.3005" style="stop-color:#FFFF00"/>
				<stop  offset="0.4516" style="stop-color:#00DD03"/>
				<stop  offset="0.5829" style="stop-color:#05C1FF"/>
				<stop  offset="0.734" style="stop-color:#00FFFF"/>
				<stop  offset="0.8818" style="stop-color:#A161E4"/>
				<stop  offset="1" style="stop-color:#000000"/>
			</linearGradient>
			<path fill="url(#SVGID_3_)" d="M205.5,76.3c0,0,15.3-0.1,38.2-0.3c11.5,0,24.8-0.1,39.1-0.2c7.2,0,14.6,0,22.1,0
				c3.8,0,7.5,0,11.3,0c3.8,0,7.7,0.1,11.5,0.6c3.8,0.5,7.6,1.4,11.2,2.8c1.8,0.7,3.5,1.5,5.2,2.5c1.7,1,3.2,2,4.7,3.2
				c1.5,1.2,2.8,2.5,4.1,4c1.2,1.4,2.3,3,3.3,4.6c1,1.6,1.7,3.3,2.4,5c0.6,1.7,1.2,3.5,1.6,5.2c0.8,3.5,1.1,7.1,1.2,10.5
				c0,3.5-0.2,6.9-0.8,10.1c-0.6,3.3-1.5,6.4-2.8,9.2c-1.3,2.8-2.9,5.4-4.8,7.6c-3.7,4.5-8.3,7.4-12.5,9.3
				c-4.3,1.9-8.3,2.8-11.6,3.3c-3.3,0.5-5.9,0.6-7.7,0.7c-1.8,0-2.7,0-2.7,0s1,0,2.7-0.1c1.8-0.1,4.4-0.3,7.7-0.8
				c3.3-0.6,7.3-1.5,11.5-3.4c4.2-1.9,8.6-4.9,12.2-9.3c1.8-2.2,3.4-4.7,4.6-7.5c1.2-2.8,2.1-5.9,2.7-9.1c0.6-3.2,0.8-6.6,0.7-10
				c-0.1-3.4-0.4-6.9-1.2-10.4c-0.4-1.7-0.9-3.4-1.6-5.1c-0.7-1.7-1.5-3.3-2.4-4.9c-0.9-1.5-2-3-3.2-4.4c-1.2-1.4-2.6-2.7-4-3.8
				c-1.5-1.2-3-2.2-4.6-3.1c-1.6-0.9-3.3-1.7-5.1-2.4c-3.5-1.3-7.2-2.2-11-2.7c-3.8-0.5-7.5-0.6-11.3-0.6c-3.8,0-7.6,0-11.3,0
				c-7.5,0-14.9,0-22.1,0c-14.3-0.1-27.7-0.1-39.1-0.2C220.8,76.4,205.5,76.3,205.5,76.3z"/>
		</g>
		<g>
			<linearGradient id="SVGID_4_" gradientUnits="userSpaceOnUse" x1="284.608" y1="157.6404" x2="284.608" y2="73.0649">
				<stop  offset="0" style="stop-color:#FF7F7F"/>
				<stop  offset="0.1494" style="stop-color:#F3742A"/>
				<stop  offset="0.3005" style="stop-color:#FFFF00"/>
				<stop  offset="0.4516" style="stop-color:#00DD03"/>
				<stop  offset="0.5829" style="stop-color:#05C1FF"/>
				<stop  offset="0.734" style="stop-color:#00FFFF"/>
				<stop  offset="0.8818" style="stop-color:#A161E4"/>
				<stop  offset="1" style="stop-color:#000000"/>
			</linearGradient>
			<path fill="url(#SVGID_4_)" d="M205.5,73.6c0,0,3.9,0,10.9-0.1c6.9,0,16.8-0.2,28.6-0.2c11.8,0,25.7-0.1,40.4-0.1
				c7.4,0,15,0,22.8-0.1c3.9,0,7.8,0,11.7,0c3.9,0.1,7.9,0.4,11.8,1.2c7.8,1.5,15.4,5,21,10.6c1.4,1.4,2.7,2.9,3.8,4.5
				c1.1,1.6,2.1,3.3,3,5c1.7,3.5,2.8,7.1,3.4,10.8c0.7,3.7,0.8,7.3,0.8,10.9c-0.1,3.6-0.4,7.1-1.1,10.4c-1.4,6.7-4.3,12.7-8.3,17.2
				c-3.9,4.5-8.7,7.5-13.1,9.4c-4.4,1.9-8.6,2.8-12,3.3c-3.4,0.5-6.1,0.6-8,0.7c-1.8,0-2.8,0-2.8,0s1,0,2.8-0.1
				c1.8-0.1,4.6-0.3,8-0.8c3.4-0.6,7.5-1.5,11.9-3.5c4.3-2,9-5,12.8-9.4c3.9-4.4,6.7-10.3,8.1-16.9c0.7-3.3,1-6.8,1.1-10.3
				c0-3.5-0.2-7.2-0.8-10.8c-0.7-3.6-1.7-7.2-3.4-10.6c-0.8-1.7-1.8-3.3-2.9-4.9c-1.1-1.6-2.3-3-3.7-4.3
				c-5.5-5.4-12.9-8.8-20.5-10.2c-7.7-1.7-15.6-1.2-23.4-1.3c-7.8,0-15.4,0-22.8-0.1c-14.8,0-28.6-0.1-40.4-0.1
				c-11.8,0-21.7-0.1-28.6-0.2C209.4,73.6,205.5,73.6,205.5,73.6z"/>
		</g>
		<g>
			<linearGradient id="SVGID_5_" gradientUnits="userSpaceOnUse" x1="285.8121" y1="160.4049" x2="285.8121" y2="70.3003">
				<stop  offset="0" style="stop-color:#FF7F7F"/>
				<stop  offset="0.1494" style="stop-color:#F3742A"/>
				<stop  offset="0.3005" style="stop-color:#FFFF00"/>
				<stop  offset="0.4516" style="stop-color:#00DD03"/>
				<stop  offset="0.5829" style="stop-color:#05C1FF"/>
				<stop  offset="0.734" style="stop-color:#00FFFF"/>
				<stop  offset="0.8818" style="stop-color:#A161E4"/>
				<stop  offset="1" style="stop-color:#000000"/>
			</linearGradient>
			<path fill="url(#SVGID_5_)" d="M205.5,70.8c0,0,4.1,0,11.2-0.1c7.1,0,17.3-0.2,29.5-0.2c12.2,0,26.5-0.1,41.8-0.1
				c7.6,0,15.5,0,23.6-0.1c4,0,8-0.1,12.1,0.1c4.1,0.3,8.2,0.9,12.1,1.9c4,1.1,7.8,2.6,11.3,4.8c1.8,1,3.4,2.3,5,3.6
				c1.6,1.3,3,2.8,4.3,4.3c5.3,6.2,8.1,14,9.1,21.6c0.5,3.8,0.6,7.6,0.4,11.3c-0.2,3.7-0.6,7.3-1.5,10.7c-0.8,3.4-2,6.7-3.5,9.6
				c-1.5,2.9-3.4,5.6-5.5,7.9c-4.1,4.6-9.1,7.6-13.6,9.6c-4.6,2-8.9,2.8-12.4,3.4c-3.5,0.5-6.3,0.6-8.2,0.7c-1.9,0-2.9,0-2.9,0
				s1,0,2.9-0.1c1.9-0.1,4.7-0.3,8.2-0.8c3.5-0.6,7.8-1.5,12.3-3.6c4.5-2,9.3-5.1,13.4-9.6c2-2.3,3.8-4.9,5.3-7.8
				c1.5-2.9,2.6-6.1,3.4-9.5c0.8-3.4,1.2-7,1.4-10.6c0.1-3.7,0-7.4-0.5-11.2c-1-7.5-3.8-15.1-9-21.2c-1.3-1.5-2.7-2.9-4.2-4.2
				c-1.5-1.3-3.2-2.5-4.9-3.5c-3.4-2.1-7.2-3.6-11.1-4.6c-3.9-1-7.9-1.7-11.9-1.9c-4-0.3-8.1-0.2-12.1-0.2c-8,0-15.9,0-23.6-0.1
				c-15.3,0-29.5-0.1-41.8-0.1c-12.2,0-22.4-0.1-29.5-0.2C209.6,70.8,205.5,70.8,205.5,70.8z"/>
		</g>
		<g>
			<linearGradient id="SVGID_6_" gradientUnits="userSpaceOnUse" x1="287.0055" y1="163.1695" x2="287.0055" y2="67.5357">
				<stop  offset="0" style="stop-color:#FF7F7F"/>
				<stop  offset="0.1494" style="stop-color:#F3742A"/>
				<stop  offset="0.3005" style="stop-color:#FFFF00"/>
				<stop  offset="0.4516" style="stop-color:#00DD03"/>
				<stop  offset="0.5829" style="stop-color:#05C1FF"/>
				<stop  offset="0.734" style="stop-color:#00FFFF"/>
				<stop  offset="0.8818" style="stop-color:#A161E4"/>
				<stop  offset="1" style="stop-color:#000000"/>
			</linearGradient>
			<path fill="url(#SVGID_6_)" d="M205.5,68c0,0,4.2,0,11.6-0.1c7.4,0,17.9-0.1,30.5-0.2c12.6,0,27.3-0.1,43.1-0.1
				c7.9,0,16,0,24.3-0.1c4.1,0,8.3,0,12.5,0.5c4.2,0.5,8.4,1.3,12.4,2.7c4,1.4,7.9,3.3,11.3,5.8c1.7,1.2,3.3,2.6,4.8,4.1
				c1.5,1.4,2.9,3.1,4.1,4.8c5,6.8,7.4,15,8.1,22.8c0.7,7.9,0.2,15.6-1.6,22.7c-1.9,7-5.3,13.2-9.7,17.9c-2.2,2.3-4.5,4.3-6.9,5.9
				c-2.4,1.6-4.9,2.8-7.2,3.8c-4.8,2-9.2,2.9-12.8,3.5c-3.6,0.5-6.5,0.6-8.5,0.7c-2,0-3,0-3,0s1.1,0,3-0.1c2-0.1,4.9-0.3,8.5-0.8
				c3.6-0.6,8-1.6,12.7-3.6c4.7-2,9.6-5.1,13.9-9.7c4.3-4.6,7.6-10.7,9.4-17.6c1.8-7,2.2-14.7,1.5-22.4c-0.8-7.8-3.2-15.8-8.1-22.4
				c-2.4-3.3-5.4-6.2-8.8-8.6c-3.4-2.4-7.1-4.2-11.1-5.6c-3.9-1.4-8-2.2-12.2-2.7c-4.1-0.5-8.3-0.5-12.4-0.5c-8.3,0-16.4,0-24.3-0.1
				c-15.8,0-30.5-0.1-43.1-0.1c-12.6-0.1-23.1-0.1-30.5-0.2C209.7,68.1,205.5,68,205.5,68z"/>
		</g>
		<g>
			<linearGradient id="SVGID_7_" gradientUnits="userSpaceOnUse" x1="288.2039" y1="165.9341" x2="288.2039" y2="64.7712">
				<stop  offset="0" style="stop-color:#FF7F7F"/>
				<stop  offset="0.1494" style="stop-color:#F3742A"/>
				<stop  offset="0.3005" style="stop-color:#FFFF00"/>
				<stop  offset="0.4516" style="stop-color:#00DD03"/>
				<stop  offset="0.5829" style="stop-color:#05C1FF"/>
				<stop  offset="0.734" style="stop-color:#00FFFF"/>
				<stop  offset="0.8818" style="stop-color:#A161E4"/>
				<stop  offset="1" style="stop-color:#000000"/>
			</linearGradient>
			<path fill="url(#SVGID_7_)" d="M205.5,65.3c0,0,4.3,0,11.9-0.1c7.6,0,18.4-0.1,31.4-0.2c13,0,28.2-0.1,44.4-0.1
				c8.1,0,16.5,0,25.1-0.1c8.5,0,17.4,1.1,25.5,4.5c8.1,3.3,15.1,9.2,19.7,16.5c2.3,3.7,4,7.6,5.1,11.7c1.2,4.1,1.8,8.2,2.1,12.3
				c0.5,8.1-0.1,16.1-2.2,23.3c-1,3.6-2.4,7-4.2,10.1c-1.8,3.1-3.8,5.8-6.1,8.1c-4.6,4.7-9.8,7.9-14.7,9.8c-4.9,2-9.5,2.9-13.2,3.5
				c-3.8,0.5-6.7,0.6-8.8,0.7c-2,0-3.1,0-3.1,0s1.1,0,3.1-0.1c2-0.1,5-0.3,8.8-0.9c3.7-0.6,8.3-1.6,13.1-3.7c4.9-2,10-5.2,14.5-9.9
				c2.2-2.3,4.3-5,6-8.1c1.7-3,3.1-6.4,4.1-9.9c2-7.1,2.6-15.1,2.1-23.1c-0.3-4-1-8.1-2.1-12.1c-1.1-4-2.8-7.9-5.1-11.4
				c-4.5-7.1-11.4-12.9-19.4-16.1c-7.9-3.3-16.6-4.5-25.1-4.5c-8.5,0-16.9,0-25.1-0.1c-16.3,0-31.4-0.1-44.4-0.1
				c-13-0.1-23.8-0.1-31.4-0.2C209.8,65.3,205.5,65.3,205.5,65.3z"/>
		</g>
		<g>
			<linearGradient id="SVGID_8_" gradientUnits="userSpaceOnUse" x1="289.4015" y1="168.6987" x2="289.4015" y2="62.0066">
				<stop  offset="0" style="stop-color:#FF7F7F"/>
				<stop  offset="0.1494" style="stop-color:#F3742A"/>
				<stop  offset="0.3005" style="stop-color:#FFFF00"/>
				<stop  offset="0.4516" style="stop-color:#00DD03"/>
				<stop  offset="0.5829" style="stop-color:#05C1FF"/>
				<stop  offset="0.734" style="stop-color:#00FFFF"/>
				<stop  offset="0.8818" style="stop-color:#A161E4"/>
				<stop  offset="1" style="stop-color:#000000"/>
			</linearGradient>
			<path fill="url(#SVGID_8_)" d="M205.5,62.5c0,0,4.5,0,12.3-0.1c7.8,0,19-0.1,32.4-0.2c13.4,0,29-0.1,45.8-0.1
				c8.4,0,17-0.1,25.8,0c4.4,0.1,8.9,0.6,13.2,1.6c4.4,0.9,8.7,2.3,12.7,4.4c8.1,4,14.9,10.5,19.1,18.3c4.3,7.8,6,16.6,6.4,24.9
				c0.3,8.4-0.4,16.6-2.7,24c-2.3,7.4-6.2,13.8-11,18.5c-4.7,4.8-10.2,8-15.3,10c-5.1,2-9.8,3-13.6,3.6c-3.9,0.6-6.9,0.7-9,0.8
				c-2.1,0-3.2,0-3.2,0s1.1,0,3.2-0.1c2.1-0.1,5.2-0.3,9-0.9c3.8-0.6,8.5-1.7,13.5-3.7c5-2.1,10.3-5.3,15-10
				c4.7-4.7,8.5-11,10.8-18.3c2.2-7.3,3-15.4,2.6-23.8c-0.4-8.3-2.2-16.9-6.4-24.6c-4.2-7.6-10.9-14-18.8-17.9
				c-3.9-2-8.2-3.4-12.5-4.3c-4.3-0.9-8.7-1.4-13.1-1.6c-8.8-0.1-17.4-0.1-25.8-0.1c-16.7,0-32.4-0.1-45.8-0.1
				c-13.4-0.1-24.5-0.1-32.4-0.2C210,62.5,205.5,62.5,205.5,62.5z"/>
		</g>
		<g>
			<linearGradient id="SVGID_9_" gradientUnits="userSpaceOnUse" x1="290.6004" y1="171.4633" x2="290.6004" y2="59.242">
				<stop  offset="0" style="stop-color:#FF7F7F"/>
				<stop  offset="0.1494" style="stop-color:#F3742A"/>
				<stop  offset="0.3005" style="stop-color:#FFFF00"/>
				<stop  offset="0.4516" style="stop-color:#00DD03"/>
				<stop  offset="0.5829" style="stop-color:#05C1FF"/>
				<stop  offset="0.734" style="stop-color:#00FFFF"/>
				<stop  offset="0.8818" style="stop-color:#A161E4"/>
				<stop  offset="1" style="stop-color:#000000"/>
			</linearGradient>
			<path fill="url(#SVGID_9_)" d="M205.5,59.7c0,0,18.4-0.1,45.9-0.3c13.8,0,29.9-0.1,47.1-0.1c4.3,0,8.7,0,13.1,0
				c4.4,0,8.9-0.1,13.5,0.2c4.5,0.3,9.1,1,13.5,2.2c2.2,0.6,4.4,1.3,6.6,2.2c2.1,0.9,4.2,1.9,6.2,3c4,2.3,7.7,5.3,10.8,8.6
				c3.2,3.4,5.7,7.3,7.7,11.4c2,4.1,3.4,8.4,4.3,12.8c0.9,4.4,1.3,8.8,1.4,13.1c0.2,8.6-0.7,17.1-3.3,24.6
				c-2.5,7.5-6.6,14.1-11.6,18.9c-4.9,4.9-10.6,8.1-15.8,10.2c-5.2,2-10.1,3.1-14,3.6c-4,0.6-7.2,0.7-9.3,0.8c-2.2,0-3.3,0-3.3,0
				s1.1,0,3.3-0.1c2.1-0.1,5.3-0.3,9.3-0.9c4-0.6,8.7-1.7,13.9-3.8c5.1-2.1,10.7-5.4,15.5-10.2c4.9-4.8,8.9-11.2,11.4-18.7
				c2.5-7.5,3.4-15.8,3.1-24.4c-0.1-4.3-0.6-8.6-1.5-12.9c-0.9-4.3-2.3-8.6-4.3-12.6c-2-4-4.5-7.8-7.6-11.1
				c-3.1-3.3-6.7-6.2-10.6-8.4c-1.9-1.2-4-2.1-6.1-3c-2.1-0.8-4.3-1.6-6.5-2.2c-4.4-1.2-8.9-1.9-13.4-2.2c-4.5-0.4-9-0.2-13.4-0.3
				c-4.4,0-8.8,0-13.1,0c-17.2,0-33.3-0.1-47.1-0.1C223.9,59.8,205.5,59.7,205.5,59.7z"/>
		</g>
		<g>
			<linearGradient id="SVGID_10_" gradientUnits="userSpaceOnUse" x1="291.7978" y1="174.2278" x2="291.7978" y2="56.4774">
				<stop  offset="0" style="stop-color:#FF7F7F"/>
				<stop  offset="0.1494" style="stop-color:#F3742A"/>
				<stop  offset="0.3005" style="stop-color:#FFFF00"/>
				<stop  offset="0.4516" style="stop-color:#00DD03"/>
				<stop  offset="0.5829" style="stop-color:#05C1FF"/>
				<stop  offset="0.734" style="stop-color:#00FFFF"/>
				<stop  offset="0.8818" style="stop-color:#A161E4"/>
				<stop  offset="1" style="stop-color:#000000"/>
			</linearGradient>
			<path fill="url(#SVGID_10_)" d="M205.5,57c0,0,18.9-0.1,47.2-0.3c14.2,0,30.7-0.1,48.4-0.1c4.4,0,8.9,0,13.5,0
				c4.5,0,9.2,0,13.8,0.5c4.6,0.5,9.3,1.4,13.8,2.9c2.3,0.7,4.5,1.6,6.6,2.6c2.1,1.1,4.3,2.2,6.2,3.5c8,5.2,14.2,13,17.9,21.6
				c3.7,8.6,5,17.9,5.1,26.8c0.1,8.9-1.1,17.5-3.8,25.2c-1.4,3.9-3.1,7.5-5.2,10.7c-2.1,3.2-4.5,6.1-7.1,8.6
				c-5.1,5-11,8.2-16.3,10.3c-5.4,2.1-10.3,3.1-14.4,3.7c-4.1,0.6-7.4,0.7-9.6,0.8c-2.2,0-3.4,0-3.4,0s1.2,0,3.4-0.1
				c2.2-0.1,5.5-0.3,9.5-0.9c4.1-0.6,9-1.7,14.3-3.9c5.3-2.2,11-5.4,16.1-10.4c2.5-2.4,4.9-5.3,6.9-8.5c2-3.2,3.7-6.8,5.1-10.6
				c2.6-7.6,3.7-16.2,3.6-25c-0.1-8.8-1.4-18-5.1-26.5c-3.7-8.5-9.8-16-17.7-21.1c-1.9-1.3-4-2.4-6.1-3.5c-2.1-1-4.3-1.9-6.5-2.6
				c-4.4-1.5-9-2.4-13.6-2.9c-4.6-0.5-9.2-0.6-13.7-0.6c-4.6,0-9.1,0-13.5,0c-17.7,0-34.2-0.1-48.4-0.1
				C224.4,57.1,205.5,57,205.5,57z"/>
		</g>
	</g>
	<g>
		<path d="M269.4,193.5l-1.2-2c-1-1.7-0.4-3.9,1.3-4.9l14.2-5.8c1.7-1,3.7-2.7,4.7-1l1.2,2c1,1.7-1.2,2.5-2.9,3.5l-12.4,9.6
			C272.6,195.8,270.4,195.2,269.4,193.5z"/>
		<path d="M289,168l11.1,18.8c0.5,0.9,0.2,2-0.6,2.5l-4.9,2.9c-0.9,0.5-2,0.2-2.5-0.6l-11.1-18.8c-0.5-0.9-0.2-2,0.6-2.5l4.9-2.9
			C287.4,166.8,288.5,167.1,289,168z"/>
		<g>
			<polygon points="300.2,186 289,167.3 320.2,148.5 319.9,174.2 			"/>
			<g>
				<path fill="#FFFFFF" d="M300.9,181c0,0,0.3-0.2,0.8-0.5c0.5-0.3,1.2-0.8,2.1-1.3c1.7-1.1,4.1-2.4,6.5-3.7
					c2.4-1.3,4.8-2.5,6.7-3.3c0.9-0.4,1.7-0.7,2.3-1c0.6-0.2,0.9-0.4,0.9-0.4s-0.3,0.2-0.8,0.5c-0.5,0.3-1.2,0.8-2.1,1.3
					c-1.7,1.1-4.1,2.4-6.5,3.7c-2.4,1.3-4.8,2.5-6.7,3.3c-0.9,0.4-1.7,0.7-2.3,1C301.3,180.8,300.9,181,300.9,181z"/>
			</g>
			<g>
				<path fill="#FFFFFF" d="M306.9,174.6c0,0,0.7-0.6,1.9-1.3c1.2-0.8,2.8-1.7,4.4-2.6c1.6-0.9,3.3-1.7,4.6-2.2
					c1.3-0.5,2.2-0.8,2.2-0.8s-0.7,0.6-1.9,1.3c-1.2,0.8-2.8,1.7-4.4,2.6c-1.6,0.9-3.3,1.7-4.6,2.2
					C307.8,174.4,306.9,174.6,306.9,174.6z"/>
			</g>
			<g>
				<path fill="#FFFFFF" d="M300.8,174.6c0,0,0.3-0.2,0.8-0.5c0.5-0.3,1.2-0.8,2.1-1.3c1.7-1.1,4.1-2.4,6.5-3.7
					c2.4-1.3,4.8-2.5,6.7-3.3c0.9-0.4,1.7-0.7,2.3-1c0.6-0.2,0.9-0.4,0.9-0.4s-0.3,0.2-0.8,0.5c-0.5,0.3-1.2,0.8-2.1,1.3
					c-1.7,1.1-4.1,2.4-6.5,3.7c-2.4,1.3-4.8,2.5-6.7,3.3c-0.9,0.4-1.7,0.7-2.3,1C301.1,174.5,300.8,174.6,300.8,174.6z"/>
			</g>
			<g>
				<path fill="#FFFFFF" d="M306.1,168.6c0,0,0.2-0.2,0.6-0.4c0.4-0.2,0.9-0.6,1.5-1c1.2-0.8,2.9-1.8,4.7-2.7
					c1.7-0.9,3.5-1.8,4.9-2.4c0.7-0.3,1.3-0.5,1.7-0.7c0.4-0.2,0.6-0.2,0.6-0.2s-0.2,0.2-0.6,0.4c-0.4,0.2-0.9,0.6-1.5,1
					c-1.2,0.8-2.9,1.8-4.7,2.7c-1.7,0.9-3.5,1.8-4.9,2.4c-0.7,0.3-1.3,0.5-1.7,0.7C306.4,168.6,306.1,168.6,306.1,168.6z"/>
			</g>
			<g>
				<path fill="#FFFFFF" d="M301,168.9c0,0,0.3-0.2,0.8-0.5c0.5-0.3,1.2-0.8,2.1-1.3c1.7-1.1,4.1-2.4,6.5-3.7
					c2.4-1.3,4.8-2.5,6.7-3.3c0.9-0.4,1.7-0.7,2.3-1c0.6-0.2,0.9-0.4,0.9-0.4s-0.3,0.2-0.8,0.5c-0.5,0.3-1.2,0.8-2.1,1.3
					c-1.7,1.1-4.1,2.4-6.5,3.7c-2.4,1.3-4.8,2.5-6.7,3.3c-0.9,0.4-1.7,0.7-2.3,1C301.3,168.7,301,168.9,301,168.9z"/>
			</g>
			<g>
				<path fill="#FFFFFF" d="M305.8,163.2c0,0,0.2-0.2,0.6-0.4c0.4-0.2,0.9-0.6,1.5-1c1.3-0.8,3.1-1.9,4.9-2.8c1.8-1,3.7-1.8,5.1-2.5
					c0.7-0.3,1.3-0.5,1.7-0.7c0.4-0.2,0.7-0.2,0.7-0.2s-0.2,0.2-0.6,0.4c-0.4,0.2-0.9,0.6-1.5,1c-1.3,0.8-3.1,1.9-4.9,2.8
					c-1.8,1-3.7,1.8-5.1,2.5c-0.7,0.3-1.3,0.5-1.7,0.7C306,163.1,305.8,163.2,305.8,163.2z"/>
			</g>
			<g>
				<path fill="#FFFFFF" d="M301,162.5c0,0,0.3-0.2,0.8-0.5c0.5-0.3,1.2-0.8,2.1-1.3c1.7-1.1,4.1-2.4,6.5-3.7
					c2.4-1.3,4.8-2.5,6.7-3.3c0.9-0.4,1.7-0.7,2.3-1c0.6-0.2,0.9-0.4,0.9-0.4s-0.3,0.2-0.8,0.5c-0.5,0.3-1.2,0.8-2.1,1.3
					c-1.7,1.1-4.1,2.4-6.5,3.7c-2.4,1.3-4.8,2.5-6.7,3.3c-0.9,0.4-1.7,0.7-2.3,1C301.3,162.4,301,162.5,301,162.5z"/>
			</g>
		</g>
		<circle fill="#FFFFFF" cx="273.5" cy="189.7" r="1.1"/>
	</g>
</g>
<text transform="matrix(1 0 0 1 204.4887 108.8405)"><tspan x="0" y="0" font-family="'Roboto-Regular'" font-size="22">JASON</tspan><tspan x="0" y="26.4" fill="#39A2DB" font-family="'Roboto-Regular'" font-size="22">WEB</tspan><tspan x="45.7" y="26.4" font-family="'Roboto-Regular'" font-size="22">  DESIGN</tspan></text>
<text transform="matrix(1 0 0 1 309.6667 117.3405)" font-family="'Roboto-Regular'" font-size="12">2022</text>
<g>
	<g>
		<g>
			<linearGradient id="SVGID_11_" gradientUnits="userSpaceOnUse" x1="72.6448" y1="68.9514" x2="72.6448" y2="20.0493">
				<stop  offset="0" style="stop-color:#FF7F7F"/>
				<stop  offset="0.1494" style="stop-color:#F3742A"/>
				<stop  offset="0.3005" style="stop-color:#FFFF00"/>
				<stop  offset="0.4516" style="stop-color:#00DD03"/>
				<stop  offset="0.5829" style="stop-color:#05C1FF"/>
				<stop  offset="0.734" style="stop-color:#00FFFF"/>
				<stop  offset="0.8818" style="stop-color:#A161E4"/>
				<stop  offset="1" style="stop-color:#000000"/>
			</linearGradient>
			<path fill="url(#SVGID_11_)" d="M99.3,68.5c0,0,0.6,0,1.8-0.1c1.2-0.1,2.9-0.2,5.1-0.6c2.2-0.4,4.8-1,7.6-2.4
				c2.7-1.3,5.7-3.5,7.9-6.5c2.3-3,3.7-7,4.1-11.3c0.4-4.3,0.1-9-1.6-13.3c-0.9-2.2-2.2-4.2-3.8-5.9c-1.7-1.7-3.7-3.2-5.9-4.3
				c-4.4-2.2-9.5-3-14.5-3C89.8,21,79.6,21,70.1,21c-9.5-0.1-18.5-0.1-26.1-0.2c-15.3-0.2-25.4-0.3-25.4-0.3s10.2-0.1,25.4-0.3
				c7.6,0,16.5-0.1,26.1-0.2c9.5,0,19.7,0,29.9-0.1c5.1,0.1,10.3,0.9,14.9,3.2c2.3,1.1,4.4,2.7,6.1,4.5c1.7,1.8,3.1,4,4,6.2
				c0.9,2.3,1.4,4.6,1.6,6.9c0.2,2.3,0.2,4.6-0.1,6.8c-0.5,4.4-2,8.5-4.3,11.6c-2.3,3.1-5.3,5.2-8.2,6.5c-2.8,1.3-5.5,1.9-7.7,2.2
				c-2.2,0.3-4,0.4-5.2,0.4C99.9,68.4,99.3,68.5,99.3,68.5z"/>
		</g>
		<g>
			<linearGradient id="SVGID_12_" gradientUnits="userSpaceOnUse" x1="73.5057" y1="70.9283" x2="73.5057" y2="18.0724">
				<stop  offset="0" style="stop-color:#FF7F7F"/>
				<stop  offset="0.1494" style="stop-color:#F3742A"/>
				<stop  offset="0.3005" style="stop-color:#FFFF00"/>
				<stop  offset="0.4516" style="stop-color:#00DD03"/>
				<stop  offset="0.5829" style="stop-color:#05C1FF"/>
				<stop  offset="0.734" style="stop-color:#00FFFF"/>
				<stop  offset="0.8818" style="stop-color:#A161E4"/>
				<stop  offset="1" style="stop-color:#000000"/>
			</linearGradient>
			<path fill="url(#SVGID_12_)" d="M18.6,18.6c0,0,10.5-0.1,26.4-0.3c7.9,0,17.1-0.1,27-0.2c4.9,0,10.1,0,15.2,0c2.6,0,5.2,0,7.8,0
				c2.6,0,5.2-0.1,7.9,0.1c5.3,0.4,10.7,1.7,15.1,4.6c2.2,1.4,4.2,3.3,5.7,5.4c1.6,2.1,2.7,4.4,3.4,6.8c0.7,2.4,1.1,4.9,1.2,7.3
				c0.1,2.4,0,4.8-0.4,7c-0.6,4.5-2.4,8.7-4.9,11.8c-2.5,3.1-5.6,5.2-8.6,6.6c-3,1.3-5.7,1.9-8,2.3c-2.3,0.3-4.1,0.4-5.3,0.5
				c-1.2,0-1.9,0-1.9,0s0.7,0,1.9-0.1c1.2-0.1,3-0.2,5.3-0.6c2.3-0.4,5-1.1,7.9-2.4c2.9-1.4,5.9-3.5,8.3-6.6c2.4-3.1,4-7.1,4.6-11.6
				c0.3-2.2,0.4-4.5,0.3-6.9c-0.1-2.3-0.5-4.7-1.2-7.1c-0.7-2.3-1.8-4.6-3.3-6.6c-1.5-2-3.4-3.7-5.5-5.1c-4.3-2.8-9.5-4-14.7-4.4
				c-2.6-0.2-5.2-0.1-7.9-0.1c-2.6,0-5.2,0-7.8,0C82,19,76.9,19,72,19c-9.9-0.1-19.1-0.1-27-0.2C29.1,18.7,18.6,18.6,18.6,18.6z"/>
		</g>
		<g>
			<linearGradient id="SVGID_13_" gradientUnits="userSpaceOnUse" x1="74.3628" y1="72.9053" x2="74.3628" y2="16.0955">
				<stop  offset="0" style="stop-color:#FF7F7F"/>
				<stop  offset="0.1494" style="stop-color:#F3742A"/>
				<stop  offset="0.3005" style="stop-color:#FFFF00"/>
				<stop  offset="0.4516" style="stop-color:#00DD03"/>
				<stop  offset="0.5829" style="stop-color:#05C1FF"/>
				<stop  offset="0.734" style="stop-color:#00FFFF"/>
				<stop  offset="0.8818" style="stop-color:#A161E4"/>
				<stop  offset="1" style="stop-color:#000000"/>
			</linearGradient>
			<path fill="url(#SVGID_13_)" d="M18.6,16.6c0,0,10.9-0.1,27.3-0.3c8.2,0,17.7-0.1,28-0.2c5.1,0,10.4,0,15.8,0c2.7,0,5.4,0,8.1,0
				c2.7,0,5.5,0,8.2,0.4c5.4,0.7,10.9,2.6,15.2,6.1c1.1,0.9,2,1.8,2.9,2.8c0.9,1,1.7,2.1,2.4,3.3c0.7,1.2,1.3,2.4,1.7,3.6
				c0.5,1.2,0.9,2.5,1.1,3.8c0.6,2.5,0.8,5.1,0.8,7.6c0,2.5-0.2,4.9-0.6,7.3c-0.4,2.3-1.1,4.6-2,6.6c-0.9,2-2.1,3.9-3.4,5.5
				c-2.7,3.2-5.9,5.3-9,6.6c-3.1,1.3-5.9,2-8.3,2.3c-2.4,0.4-4.2,0.4-5.5,0.5c-1.3,0-2,0-2,0s0.7,0,2-0.1c1.3-0.1,3.2-0.2,5.5-0.6
				c2.3-0.4,5.2-1.1,8.2-2.5c3-1.4,6.1-3.5,8.7-6.7c1.3-1.6,2.4-3.4,3.3-5.4c0.9-2,1.5-4.2,1.9-6.5c0.4-2.3,0.5-4.7,0.5-7.1
				c-0.1-2.4-0.3-4.9-0.9-7.4c-0.3-1.2-0.7-2.4-1.1-3.6c-0.5-1.2-1-2.3-1.7-3.5c-0.7-1.1-1.4-2.2-2.3-3.1c-0.9-1-1.8-1.9-2.8-2.7
				c-4.1-3.4-9.4-5.1-14.7-5.8c-2.7-0.4-5.4-0.4-8.1-0.4c-2.7,0-5.4,0-8.1,0c-5.4,0-10.7,0-15.8,0c-10.2-0.1-19.8-0.1-28-0.2
				C29.5,16.7,18.6,16.6,18.6,16.6z"/>
		</g>
		<g>
			<linearGradient id="SVGID_14_" gradientUnits="userSpaceOnUse" x1="75.2214" y1="74.8822" x2="75.2214" y2="14.1186">
				<stop  offset="0" style="stop-color:#FF7F7F"/>
				<stop  offset="0.1494" style="stop-color:#F3742A"/>
				<stop  offset="0.3005" style="stop-color:#FFFF00"/>
				<stop  offset="0.4516" style="stop-color:#00DD03"/>
				<stop  offset="0.5829" style="stop-color:#05C1FF"/>
				<stop  offset="0.734" style="stop-color:#00FFFF"/>
				<stop  offset="0.8818" style="stop-color:#A161E4"/>
				<stop  offset="1" style="stop-color:#000000"/>
			</linearGradient>
			<path fill="url(#SVGID_14_)" d="M18.6,14.6c0,0,11.3-0.1,28.2-0.3c8.5,0,18.3-0.1,28.9-0.2c5.3,0,10.8,0,16.3,0
				c2.8,0,5.6,0,8.4,0c2.8,0,5.7,0.3,8.5,0.9c5.6,1.1,11,3.6,15.1,7.6c4.1,4,6.5,9.3,7.3,14.6c0.5,2.6,0.6,5.3,0.6,7.8
				c-0.1,2.6-0.3,5.1-0.8,7.5c-1,4.8-3.1,9.1-6,12.3c-2.8,3.2-6.2,5.4-9.4,6.7c-3.2,1.4-6.2,2-8.6,2.4c-2.4,0.4-4.4,0.4-5.7,0.5
				c-1.3,0-2,0-2,0s0.7,0,2-0.1c1.3-0.1,3.3-0.2,5.7-0.6c2.4-0.4,5.4-1.1,8.5-2.5c3.1-1.4,6.4-3.6,9.1-6.8c2.7-3.2,4.8-7.4,5.7-12.1
				c0.5-2.4,0.7-4.8,0.7-7.3c0-2.5-0.1-5.1-0.6-7.7c-0.9-5.1-3.2-10.3-7.1-14.1c-3.9-3.9-9.1-6.3-14.6-7.3
				c-5.5-1.2-11.1-0.8-16.7-0.9c-5.6,0-11,0-16.3,0c-10.6-0.1-20.5-0.1-28.9-0.2C29.8,14.7,18.6,14.6,18.6,14.6z"/>
		</g>
		<g>
			<linearGradient id="SVGID_15_" gradientUnits="userSpaceOnUse" x1="76.0835" y1="76.8591" x2="76.0835" y2="12.1417">
				<stop  offset="0" style="stop-color:#FF7F7F"/>
				<stop  offset="0.1494" style="stop-color:#F3742A"/>
				<stop  offset="0.3005" style="stop-color:#FFFF00"/>
				<stop  offset="0.4516" style="stop-color:#00DD03"/>
				<stop  offset="0.5829" style="stop-color:#05C1FF"/>
				<stop  offset="0.734" style="stop-color:#00FFFF"/>
				<stop  offset="0.8818" style="stop-color:#A161E4"/>
				<stop  offset="1" style="stop-color:#000000"/>
			</linearGradient>
			<path fill="url(#SVGID_15_)" d="M18.6,12.6c0,0,11.7-0.1,29.1-0.3c8.7,0,18.9-0.1,29.9-0.2c5.5,0,11.1,0,16.8,0
				c2.9,0,5.7-0.1,8.7,0.1c2.9,0.2,5.9,0.6,8.7,1.4c2.9,0.8,5.6,1.9,8.1,3.4c2.5,1.5,4.8,3.4,6.7,5.7c3.8,4.5,5.9,10.1,6.5,15.5
				c0.4,2.7,0.5,5.5,0.3,8.1c-0.1,2.7-0.5,5.2-1.1,7.7c-0.6,2.5-1.4,4.8-2.5,6.9c-1.1,2.1-2.4,4-3.9,5.6c-3,3.3-6.5,5.5-9.8,6.8
				c-3.3,1.4-6.4,2-8.9,2.4c-2.5,0.4-4.5,0.4-5.9,0.5c-1.4,0-2.1,0-2.1,0s0.7,0,2.1-0.1c1.4-0.1,3.4-0.2,5.9-0.6
				c2.5-0.4,5.5-1.1,8.8-2.6c3.2-1.4,6.6-3.6,9.5-6.9c1.4-1.6,2.7-3.5,3.8-5.6c1.1-2.1,1.9-4.4,2.4-6.8c0.6-2.4,0.9-5,1-7.6
				c0.1-2.6,0-5.3-0.4-8c-0.7-5.3-2.7-10.8-6.4-15.1c-3.7-4.3-8.9-7.3-14.4-8.7c-2.8-0.7-5.6-1.2-8.5-1.4c-2.9-0.2-5.8-0.1-8.6-0.1
				c-5.7,0-11.4,0-16.8,0C66.6,13,56.4,13,47.7,12.9C30.2,12.8,18.6,12.6,18.6,12.6z"/>
		</g>
		<g>
			<linearGradient id="SVGID_16_" gradientUnits="userSpaceOnUse" x1="76.9363" y1="78.836" x2="76.9363" y2="10.1648">
				<stop  offset="0" style="stop-color:#FF7F7F"/>
				<stop  offset="0.1494" style="stop-color:#F3742A"/>
				<stop  offset="0.3005" style="stop-color:#FFFF00"/>
				<stop  offset="0.4516" style="stop-color:#00DD03"/>
				<stop  offset="0.5829" style="stop-color:#05C1FF"/>
				<stop  offset="0.734" style="stop-color:#00FFFF"/>
				<stop  offset="0.8818" style="stop-color:#A161E4"/>
				<stop  offset="1" style="stop-color:#000000"/>
			</linearGradient>
			<path fill="url(#SVGID_16_)" d="M18.6,10.7c0,0,12-0.1,30.1-0.3c9,0,19.5-0.1,30.8-0.2c5.6,0,11.5,0,17.4,0
				c5.9-0.1,12.1,0.3,17.9,2.3c5.8,1.9,11,5.6,14.5,10.5c3.6,4.9,5.3,10.8,5.8,16.4c0.5,5.7,0.2,11.2-1.2,16.3
				c-1.3,5-3.8,9.5-7,12.8c-3.1,3.3-6.8,5.5-10.2,6.9c-3.4,1.4-6.6,2.1-9.2,2.4c-2.6,0.4-4.7,0.4-6.1,0.5c-1.4,0-2.2,0-2.2,0
				s0.8,0,2.2-0.1c1.4-0.1,3.5-0.2,6.1-0.6c2.6-0.4,5.7-1.1,9.1-2.6c3.3-1.4,6.9-3.7,9.9-7c3-3.3,5.4-7.6,6.7-12.6
				c1.3-5,1.5-10.4,1-16c-0.5-5.5-2.2-11.2-5.7-15.9c-3.4-4.7-8.5-8.2-14.1-10.1c-2.8-1-5.7-1.6-8.7-1.9c-2.9-0.4-5.9-0.4-8.9-0.4
				c-5.9,0-11.7,0-17.4,0C68.2,11,57.7,11,48.6,10.9C30.6,10.8,18.6,10.7,18.6,10.7z"/>
		</g>
		<g>
			<linearGradient id="SVGID_17_" gradientUnits="userSpaceOnUse" x1="77.7936" y1="80.8129" x2="77.7936" y2="8.1879">
				<stop  offset="0" style="stop-color:#FF7F7F"/>
				<stop  offset="0.1494" style="stop-color:#F3742A"/>
				<stop  offset="0.3005" style="stop-color:#FFFF00"/>
				<stop  offset="0.4516" style="stop-color:#00DD03"/>
				<stop  offset="0.5829" style="stop-color:#05C1FF"/>
				<stop  offset="0.734" style="stop-color:#00FFFF"/>
				<stop  offset="0.8818" style="stop-color:#A161E4"/>
				<stop  offset="1" style="stop-color:#000000"/>
			</linearGradient>
			<path fill="url(#SVGID_17_)" d="M18.6,8.7c0,0,12.4-0.1,31-0.3c9.3,0,20.1-0.1,31.8-0.2c5.8,0,11.8,0,17.9,0
				c6.1,0,12.5,0.8,18.3,3.2c5.8,2.4,10.9,6.6,14.2,11.9c3.3,5.3,4.8,11.4,5.2,17.2c0.4,5.8-0.1,11.6-1.6,16.7c-0.8,2.6-1.8,5-3,7.2
				c-1.3,2.2-2.8,4.1-4.4,5.8c-3.3,3.4-7.1,5.6-10.6,7c-3.5,1.4-6.8,2.1-9.5,2.5c-2.7,0.4-4.8,0.5-6.3,0.5c-1.5,0-2.2,0-2.2,0
				s0.8,0,2.2-0.1c1.4-0.1,3.6-0.2,6.3-0.6c2.7-0.4,5.9-1.2,9.4-2.7c3.5-1.5,7.1-3.7,10.3-7.1c1.6-1.7,3-3.6,4.3-5.8
				c1.2-2.2,2.2-4.6,2.9-7.1c1.4-5.1,1.8-10.7,1.4-16.5c-0.4-5.7-1.9-11.7-5.1-16.7c-3.2-5.1-8.1-9.2-13.8-11.5
				c-5.6-2.4-11.9-3.2-17.9-3.2c-6.1,0-12.1,0-17.9,0C69.7,9.1,58.9,9,49.6,9C31,8.8,18.6,8.7,18.6,8.7z"/>
		</g>
		<g>
			<linearGradient id="SVGID_18_" gradientUnits="userSpaceOnUse" x1="78.65" y1="82.7898" x2="78.65" y2="6.211">
				<stop  offset="0" style="stop-color:#FF7F7F"/>
				<stop  offset="0.1494" style="stop-color:#F3742A"/>
				<stop  offset="0.3005" style="stop-color:#FFFF00"/>
				<stop  offset="0.4516" style="stop-color:#00DD03"/>
				<stop  offset="0.5829" style="stop-color:#05C1FF"/>
				<stop  offset="0.734" style="stop-color:#00FFFF"/>
				<stop  offset="0.8818" style="stop-color:#A161E4"/>
				<stop  offset="1" style="stop-color:#000000"/>
			</linearGradient>
			<path fill="url(#SVGID_18_)" d="M18.6,6.7c0,0,12.8-0.1,31.9-0.3c9.6,0,20.7-0.1,32.7-0.2c6,0,12.2-0.1,18.5,0
				c6.3,0.2,12.8,1.4,18.6,4.3c5.8,2.9,10.7,7.6,13.8,13.2c3.1,5.6,4.4,11.9,4.6,17.9c0.3,6-0.3,11.9-2,17.2
				c-1.7,5.3-4.5,9.9-7.9,13.3c-3.4,3.4-7.3,5.7-10.9,7.1c-3.6,1.4-7,2.1-9.8,2.5c-2.8,0.4-5,0.5-6.5,0.5c-1.5,0-2.3,0-2.3,0
				s0.8,0,2.3-0.1c1.5-0.1,3.7-0.2,6.4-0.6c2.7-0.4,6.1-1.2,9.6-2.7c3.6-1.5,7.4-3.8,10.7-7.2c3.3-3.4,6.1-7.9,7.6-13.1
				c1.6-5.2,2.1-11,1.8-16.9c-0.3-5.9-1.5-12.1-4.6-17.5c-3-5.4-7.7-10-13.4-12.7c-5.6-2.8-12-4-18.2-4.2c-6.3-0.1-12.5,0-18.4-0.1
				C71.2,7.1,60.1,7,50.5,7C31.3,6.8,18.6,6.7,18.6,6.7z"/>
		</g>
		<g>
			<linearGradient id="SVGID_19_" gradientUnits="userSpaceOnUse" x1="79.507" y1="84.7667" x2="79.507" y2="4.2341">
				<stop  offset="0" style="stop-color:#FF7F7F"/>
				<stop  offset="0.1494" style="stop-color:#F3742A"/>
				<stop  offset="0.3005" style="stop-color:#FFFF00"/>
				<stop  offset="0.4516" style="stop-color:#00DD03"/>
				<stop  offset="0.5829" style="stop-color:#05C1FF"/>
				<stop  offset="0.734" style="stop-color:#00FFFF"/>
				<stop  offset="0.8818" style="stop-color:#A161E4"/>
				<stop  offset="1" style="stop-color:#000000"/>
			</linearGradient>
			<path fill="url(#SVGID_19_)" d="M18.6,4.7c0,0,13.1-0.1,32.8-0.3c9.9,0,21.3-0.1,33.7-0.2c3.1,0,6.2,0,9.4,0
				c3.2,0,6.4-0.1,9.6,0.2c6.5,0.5,13.1,2,18.9,5.3c5.8,3.3,10.5,8.5,13.3,14.4c2.9,5.9,4,12.4,4.1,18.6c0.2,6.2-0.5,12.2-2.4,17.6
				c-1.8,5.4-4.8,10.1-8.4,13.5c-3.6,3.5-7.6,5.8-11.3,7.2c-3.8,1.4-7.2,2.2-10.1,2.6c-2.9,0.4-5.1,0.5-6.7,0.5c-1.5,0-2.4,0-2.4,0
				s0.8,0,2.4-0.1c1.5-0.1,3.8-0.2,6.6-0.7c2.8-0.4,6.2-1.2,9.9-2.7c3.7-1.5,7.6-3.9,11.1-7.3c3.5-3.4,6.4-8,8.1-13.4
				c1.7-5.3,2.4-11.3,2.2-17.4c-0.2-6.1-1.3-12.4-4.1-18.2c-1.4-2.9-3.2-5.6-5.4-7.9c-2.2-2.4-4.7-4.4-7.6-6
				c-5.6-3.3-12.1-4.8-18.5-5.3c-3.2-0.2-6.4-0.2-9.6-0.2c-3.2,0-6.3,0-9.4,0C72.8,5.1,61.3,5.1,51.4,5C31.7,4.8,18.6,4.7,18.6,4.7z
				"/>
		</g>
		<g>
			<linearGradient id="SVGID_20_" gradientUnits="userSpaceOnUse" x1="80.3625" y1="86.7436" x2="80.3625" y2="2.2571">
				<stop  offset="0" style="stop-color:#FF7F7F"/>
				<stop  offset="0.1494" style="stop-color:#F3742A"/>
				<stop  offset="0.3005" style="stop-color:#FFFF00"/>
				<stop  offset="0.4516" style="stop-color:#00DD03"/>
				<stop  offset="0.5829" style="stop-color:#05C1FF"/>
				<stop  offset="0.734" style="stop-color:#00FFFF"/>
				<stop  offset="0.8818" style="stop-color:#A161E4"/>
				<stop  offset="1" style="stop-color:#000000"/>
			</linearGradient>
			<path fill="url(#SVGID_20_)" d="M18.6,2.8c0,0,13.5-0.1,33.8-0.3c10.1,0,21.9-0.1,34.6-0.2c3.2,0,6.4,0,9.6,0
				c3.2,0,6.6,0,9.9,0.4c6.6,0.7,13.4,2.6,19.1,6.4c5.7,3.8,10.2,9.3,12.9,15.5c2.7,6.2,3.6,12.9,3.7,19.2
				c0.1,6.4-0.8,12.6-2.7,18.1c-1.9,5.5-5.1,10.3-8.8,13.8c-3.7,3.5-7.9,5.8-11.7,7.3c-3.9,1.5-7.4,2.2-10.3,2.6
				c-2.9,0.4-5.3,0.5-6.8,0.5c-1.6,0-2.4,0-2.4,0s0.8,0,2.4-0.1c1.6-0.1,3.9-0.2,6.8-0.7c2.9-0.4,6.4-1.3,10.2-2.8
				c3.8-1.6,7.8-3.9,11.5-7.4c3.6-3.5,6.7-8.2,8.5-13.6c1.9-5.5,2.6-11.6,2.6-17.8c-0.1-6.3-1-12.8-3.6-18.9c-2.6-6-7-11.4-12.6-15
				c-5.5-3.7-12.2-5.6-18.7-6.4c-3.3-0.4-6.5-0.4-9.8-0.4c-3.3,0-6.5,0-9.6,0C74.3,3.1,62.5,3.1,52.3,3C32.1,2.9,18.6,2.8,18.6,2.8z
				"/>
		</g>
	</g>
	<g>
		<path d="M64.2,100.4L63.4,99c-0.7-1.2-0.3-2.8,0.9-3.5l10.1-4.2c1.2-0.7,2.7-1.9,3.4-0.7l0.8,1.4c0.7,1.2-0.8,1.8-2.1,2.5
			l-8.8,6.8C66.5,102,65,101.6,64.2,100.4z"/>
		<path d="M78.3,82.1l7.9,13.4c0.4,0.6,0.2,1.4-0.5,1.8l-3.5,2.1c-0.6,0.4-1.4,0.2-1.8-0.5l-7.9-13.4c-0.4-0.6-0.2-1.4,0.5-1.8
			l3.5-2.1C77.1,81.3,77.9,81.5,78.3,82.1z"/>
		<g>
			<polygon points="86.3,95 78.3,81.7 100.6,68.2 100.4,86.6 			"/>
			<g>
				<path fill="#FFFFFF" d="M86.8,91.4c0,0,0.2-0.2,0.5-0.4c0.4-0.2,0.9-0.6,1.5-1c1.2-0.8,2.9-1.8,4.6-2.7c1.7-0.9,3.5-1.8,4.8-2.3
					c0.7-0.3,1.3-0.5,1.6-0.7c0.4-0.2,0.6-0.2,0.6-0.2s-0.2,0.2-0.5,0.4c-0.4,0.2-0.9,0.6-1.5,1c-1.2,0.8-2.9,1.8-4.6,2.7
					c-1.7,0.9-3.5,1.8-4.8,2.3c-0.7,0.3-1.3,0.5-1.6,0.7C87,91.3,86.8,91.4,86.8,91.4z"/>
			</g>
			<g>
				<path fill="#FFFFFF" d="M91.1,86.9c0,0,0.5-0.5,1.3-1c0.8-0.6,2-1.3,3.1-1.9c1.2-0.6,2.4-1.2,3.3-1.5c0.9-0.4,1.6-0.5,1.6-0.5
					s-0.5,0.5-1.3,1c-0.8,0.6-2,1.3-3.1,1.9c-1.2,0.6-2.4,1.2-3.3,1.5C91.7,86.7,91.1,86.9,91.1,86.9z"/>
			</g>
			<g>
				<path fill="#FFFFFF" d="M86.7,86.9c0,0,0.2-0.2,0.5-0.4c0.4-0.2,0.9-0.6,1.5-1c1.2-0.8,2.9-1.8,4.6-2.7c1.7-0.9,3.5-1.8,4.8-2.3
					c0.7-0.3,1.3-0.5,1.6-0.7c0.4-0.2,0.6-0.2,0.6-0.2s-0.2,0.2-0.5,0.4c-0.4,0.2-0.9,0.6-1.5,1c-1.2,0.8-2.9,1.8-4.6,2.7
					c-1.7,0.9-3.5,1.8-4.8,2.3c-0.7,0.3-1.3,0.5-1.6,0.7C87,86.8,86.7,86.9,86.7,86.9z"/>
			</g>
			<g>
				<path fill="#FFFFFF" d="M90.5,82.6c0,0,0.5-0.5,1.4-1.1c0.9-0.6,2.1-1.3,3.3-2c1.2-0.7,2.5-1.2,3.5-1.6c1-0.4,1.7-0.6,1.7-0.6
					s-0.5,0.5-1.4,1.1c-0.9,0.6-2.1,1.3-3.3,2c-1.2,0.7-2.5,1.2-3.5,1.6C91.2,82.4,90.5,82.6,90.5,82.6z"/>
			</g>
			<g>
				<path fill="#FFFFFF" d="M86.8,82.8c0,0,0.2-0.2,0.5-0.4c0.4-0.2,0.9-0.6,1.5-1c1.2-0.8,2.9-1.8,4.6-2.7c1.7-0.9,3.5-1.8,4.8-2.3
					c0.7-0.3,1.3-0.5,1.6-0.7c0.4-0.2,0.6-0.2,0.6-0.2s-0.2,0.2-0.5,0.4c-0.4,0.2-0.9,0.6-1.5,1c-1.2,0.8-2.9,1.8-4.6,2.7
					c-1.7,0.9-3.5,1.8-4.8,2.3c-0.7,0.3-1.3,0.5-1.6,0.7C87.1,82.7,86.8,82.8,86.8,82.8z"/>
			</g>
			<g>
				<path fill="#FFFFFF" d="M90.3,78.7c0,0,0.6-0.5,1.5-1.1c0.9-0.6,2.2-1.4,3.4-2.1c1.3-0.7,2.6-1.3,3.6-1.7c1-0.4,1.7-0.6,1.7-0.6
					s-0.6,0.5-1.5,1.1c-0.9,0.6-2.2,1.4-3.4,2.1c-1.3,0.7-2.6,1.3-3.7,1.7C91,78.5,90.3,78.7,90.3,78.7z"/>
			</g>
			<g>
				<path fill="#FFFFFF" d="M86.9,78.2c0,0,0.2-0.2,0.5-0.4c0.4-0.2,0.9-0.6,1.5-1c1.2-0.8,2.9-1.8,4.6-2.7c1.7-0.9,3.5-1.8,4.8-2.3
					c0.7-0.3,1.3-0.5,1.6-0.7c0.4-0.2,0.6-0.2,0.6-0.2s-0.2,0.2-0.5,0.4c-0.4,0.2-0.9,0.6-1.5,1c-1.2,0.8-2.9,1.8-4.6,2.7
					c-1.7,0.9-3.5,1.8-4.8,2.3c-0.7,0.3-1.3,0.5-1.6,0.7C87.1,78.2,86.9,78.2,86.9,78.2z"/>
			</g>
		</g>
		<circle fill="#FFFFFF" cx="67.2" cy="97.7" r="0.8"/>
	</g>
</g>
<text transform="matrix(1 0 0 1 17.8473 39.8444)"><tspan x="0" y="0" font-family="'Roboto-Regular'" font-size="15.7319">JASON</tspan><tspan x="0" y="18.9" fill="#39A2DB" font-family="'Roboto-Regular'" font-size="15.7319">WEB</tspan><tspan x="32.7" y="18.9" font-family="'Roboto-Regular'" font-size="15.7319">  DESIGN</tspan></text>
<text transform="matrix(1 0 0 1 93.0582 45.9235)" font-family="'Roboto-Regular'" font-size="8.581">2022</text>
</svg>
