<?xml version="1.0" encoding="utf-8"?>
<!-- Generator: Adobe Illustrator 18.1.1, SVG Export Plug-In . SVG Version: 6.00 Build 0)  -->
<svg version="1.1" id="圖層_1" xmlns="http://www.w3.org/2000/svg" xmlns:xlink="http://www.w3.org/1999/xlink" x="0px" y="0px"
	 viewBox="0 0 210 144" enable-background="new 0 0 210 144" xml:space="preserve">
<g>
	<g>
		<linearGradient id="SVGID_1_" gradientUnits="userSpaceOnUse" x1="96.3926" y1="110.3474" x2="96.3926" y2="34.5368">
			<stop  offset="0" style="stop-color:#FF7F7F"/>
			<stop  offset="0.1494" style="stop-color:#F3742A"/>
			<stop  offset="0.3005" style="stop-color:#FFFF00"/>
			<stop  offset="0.4516" style="stop-color:#00DD03"/>
			<stop  offset="0.5829" style="stop-color:#05C1FF"/>
			<stop  offset="0.734" style="stop-color:#00FFFF"/>
			<stop  offset="0.8818" style="stop-color:#A161E4"/>
			<stop  offset="1" style="stop-color:#000000"/>
		</linearGradient>
		<path fill="url(#SVGID_1_)" d="M138.2,109.8c0,0,1,0,2.9-0.1c1.9-0.1,4.6-0.3,8-0.9c1.7-0.3,3.6-0.7,5.6-1.3
			c2-0.6,4.1-1.4,6.3-2.4c2.2-1.1,4.4-2.4,6.5-4.1c2.1-1.7,4.2-3.7,5.9-6.1c3.6-4.7,5.8-11,6.4-17.7c0.3-3.4,0.4-6.9,0-10.4
			c-0.2-1.8-0.5-3.5-0.9-5.3c-0.4-1.8-1-3.5-1.6-5.2c-0.7-1.7-1.5-3.4-2.5-4.9c-1-1.6-2.2-3.1-3.5-4.4c-1.3-1.4-2.7-2.6-4.3-3.8
			c-1.5-1.1-3.2-2.1-4.9-3c-7-3.4-15-4.7-22.8-4.7c-31.8-0.1-63.6-0.2-87.4-0.2c-11.9,0-21.9-0.1-28.8-0.2C16,35.1,12.1,35,12.1,35
			S16,35,23,35c7,0,16.9-0.2,28.8-0.2c23.8-0.1,55.6-0.1,87.4-0.2c8,0.1,16.1,1.4,23.2,5c1.8,0.9,3.5,1.9,5,3.1
			c1.6,1.2,3.1,2.4,4.4,3.9c1.3,1.4,2.5,2.9,3.5,4.6c1,1.6,1.9,3.3,2.6,5.1c0.7,1.8,1.2,3.5,1.6,5.3c0.4,1.8,0.7,3.6,0.8,5.4
			c0.3,3.6,0.3,7.1-0.1,10.6c-0.7,6.8-3,13.2-6.7,18c-3.6,4.9-8.3,8.1-12.7,10.1c-2.2,1-4.4,1.8-6.4,2.3c-2,0.6-3.9,1-5.6,1.2
			c-3.4,0.5-6.2,0.7-8,0.7C139.2,109.8,138.2,109.8,138.2,109.8z"/>
	</g>
	<g>
		<linearGradient id="SVGID_2_" gradientUnits="userSpaceOnUse" x1="97.7323" y1="113.4348" x2="97.7323" y2="31.4494">
			<stop  offset="0" style="stop-color:#FF7F7F"/>
			<stop  offset="0.1494" style="stop-color:#F3742A"/>
			<stop  offset="0.3005" style="stop-color:#FFFF00"/>
			<stop  offset="0.4516" style="stop-color:#00DD03"/>
			<stop  offset="0.5829" style="stop-color:#05C1FF"/>
			<stop  offset="0.734" style="stop-color:#00FFFF"/>
			<stop  offset="0.8818" style="stop-color:#A161E4"/>
			<stop  offset="1" style="stop-color:#000000"/>
		</linearGradient>
		<path fill="url(#SVGID_2_)" d="M12.1,31.9c0,0,4.1,0,11.3-0.1c7.2,0,17.5-0.1,29.9-0.2c12.4,0,26.8-0.1,42.2-0.1
			c7.7,0,15.7,0,23.8-0.1c4.1,0,8.1,0,12.2,0c4.1,0,8.2-0.1,12.4,0.2c8.2,0.6,16.6,2.6,23.5,7.2c1.7,1.1,3.3,2.4,4.8,3.8
			c1.5,1.4,2.9,2.9,4,4.5c1.2,1.6,2.2,3.3,3.1,5.1c0.9,1.8,1.6,3.6,2.1,5.5c1.2,3.7,1.7,7.6,1.8,11.3c0.2,3.7,0,7.4-0.5,10.9
			c-1,7.1-3.6,13.5-7.5,18.4c-3.9,4.9-8.7,8.2-13.3,10.2c-4.6,2.1-8.9,3.1-12.5,3.6c-3.6,0.5-6.4,0.7-8.3,0.7c-1.9,0-3,0-3,0
			s1,0,3-0.1c1.9-0.1,4.8-0.3,8.3-0.9c3.5-0.6,7.8-1.6,12.4-3.8c4.5-2.1,9.2-5.4,13.1-10.3c3.8-4.8,6.4-11.2,7.3-18.1
			c0.5-3.5,0.6-7.1,0.5-10.8c-0.2-3.7-0.7-7.4-1.9-11.1c-0.5-1.8-1.3-3.6-2.1-5.4c-0.8-1.7-1.9-3.4-3.1-5c-1.2-1.6-2.5-3-4-4.4
			c-1.5-1.3-3-2.6-4.7-3.7c-6.8-4.4-14.9-6.3-23.1-6.9c-4.1-0.3-8.2-0.2-12.3-0.2c-4.1,0-8.2,0-12.2,0c-8.1,0-16.1,0-23.8-0.1
			c-15.4,0-29.9-0.1-42.2-0.1c-12.4-0.1-22.7-0.1-29.9-0.2C16.2,32,12.1,31.9,12.1,31.9z"/>
	</g>
	<g>
		<linearGradient id="SVGID_3_" gradientUnits="userSpaceOnUse" x1="99.0666" y1="116.5222" x2="99.0666" y2="28.3619">
			<stop  offset="0" style="stop-color:#FF7F7F"/>
			<stop  offset="0.1494" style="stop-color:#F3742A"/>
			<stop  offset="0.3005" style="stop-color:#FFFF00"/>
			<stop  offset="0.4516" style="stop-color:#00DD03"/>
			<stop  offset="0.5829" style="stop-color:#05C1FF"/>
			<stop  offset="0.734" style="stop-color:#00FFFF"/>
			<stop  offset="0.8818" style="stop-color:#A161E4"/>
			<stop  offset="1" style="stop-color:#000000"/>
		</linearGradient>
		<path fill="url(#SVGID_3_)" d="M12.1,28.9c0,0,4.3,0,11.7-0.1c7.5,0,18.1-0.1,30.9-0.2c12.8,0,27.7-0.1,43.7-0.1
			c8,0,16.3,0,24.6-0.1c4.2,0,8.4,0,12.7,0c4.2,0,8.5,0.1,12.8,0.6c4.3,0.6,8.5,1.6,12.5,3.1c2,0.8,3.9,1.7,5.8,2.7
			c1.9,1.1,3.6,2.3,5.3,3.6c1.6,1.4,3.1,2.8,4.5,4.4c1.4,1.6,2.6,3.3,3.7,5.1c1.1,1.8,1.9,3.7,2.7,5.6c0.7,1.9,1.3,3.9,1.8,5.8
			c0.9,3.9,1.3,7.9,1.3,11.8c0,3.9-0.2,7.7-0.9,11.3c-0.7,3.6-1.7,7.1-3.1,10.3c-1.4,3.2-3.2,6-5.3,8.5c-4.1,5-9.2,8.3-14,10.4
			c-2.4,1-4.7,1.8-6.9,2.4c-2.2,0.6-4.2,1-6.1,1.2c-3.7,0.6-6.6,0.7-8.6,0.8c-2,0-3.1,0-3.1,0s1.1,0,3.1-0.1c2-0.1,4.9-0.3,8.6-0.9
			c1.8-0.3,3.9-0.8,6-1.3c2.2-0.6,4.4-1.4,6.8-2.5c4.7-2.1,9.6-5.5,13.7-10.4c2-2.4,3.8-5.3,5.2-8.4c1.4-3.1,2.4-6.6,3-10.1
			c0.6-3.6,0.9-7.3,0.8-11.2c-0.1-3.8-0.4-7.7-1.3-11.6c-0.4-1.9-1.1-3.8-1.8-5.7c-0.8-1.9-1.6-3.7-2.7-5.4
			c-1.1-1.7-2.3-3.4-3.6-4.9c-1.4-1.5-2.9-3-4.5-4.3c-1.6-1.3-3.3-2.5-5.2-3.5c-1.8-1-3.7-1.9-5.7-2.7c-3.9-1.5-8.1-2.5-12.3-3
			c-4.2-0.6-8.4-0.7-12.7-0.7c-4.2,0-8.5,0-12.7,0c-8.4,0-16.7,0-24.6-0.1c-16,0-30.9-0.1-43.7-0.1c-12.8-0.1-23.4-0.1-30.9-0.2
			C16.3,28.9,12.1,28.9,12.1,28.9z"/>
	</g>
	<g>
		<linearGradient id="SVGID_4_" gradientUnits="userSpaceOnUse" x1="100.403" y1="119.6096" x2="100.403" y2="25.2745">
			<stop  offset="0" style="stop-color:#FF7F7F"/>
			<stop  offset="0.1494" style="stop-color:#F3742A"/>
			<stop  offset="0.3005" style="stop-color:#FFFF00"/>
			<stop  offset="0.4516" style="stop-color:#00DD03"/>
			<stop  offset="0.5829" style="stop-color:#05C1FF"/>
			<stop  offset="0.734" style="stop-color:#00FFFF"/>
			<stop  offset="0.8818" style="stop-color:#A161E4"/>
			<stop  offset="1" style="stop-color:#000000"/>
		</linearGradient>
		<path fill="url(#SVGID_4_)" d="M12.1,25.8c0,0,4.4,0,12.1-0.1c7.7,0,18.7-0.1,32-0.2c13.2,0,28.6-0.1,45.2-0.1
			c8.3,0,16.8,0,25.5-0.1c4.3,0,8.7,0,13.1,0c4.4,0.1,8.9,0.4,13.2,1.3c8.7,1.7,17.1,5.6,23.4,11.8c0.8,0.7,1.5,1.6,2.2,2.4
			c0.7,0.9,1.4,1.7,2,2.6c1.3,1.8,2.4,3.6,3.3,5.6c1.9,3.9,3.1,8,3.8,12.1c0.7,4.1,0.9,8.2,0.9,12.2c-0.1,4-0.5,7.9-1.3,11.6
			c-1.5,7.5-4.8,14.2-9.2,19.2c-4.4,5-9.7,8.4-14.6,10.5c-5,2.1-9.6,3.1-13.4,3.7c-3.8,0.6-6.9,0.7-8.9,0.8c-2.1,0-3.2,0-3.2,0
			s1.1,0,3.2-0.1c2.1-0.1,5.1-0.3,8.9-0.9c3.8-0.6,8.4-1.7,13.3-3.9c4.9-2.2,10-5.6,14.3-10.5c4.3-4.9,7.5-11.6,9-18.9
			c0.8-3.7,1.1-7.5,1.2-11.5c0-4-0.2-8-0.9-12c-0.7-4-1.9-8.1-3.8-11.8c-0.9-1.9-2-3.7-3.3-5.4c-0.6-0.9-1.3-1.7-2-2.5
			c-0.7-0.8-1.4-1.6-2.2-2.3c-6.1-6.1-14.4-9.8-23-11.5c-4.3-0.9-8.7-1.3-13-1.4c-4.4-0.1-8.8,0-13.1-0.1c-8.7,0-17.2,0-25.5-0.1
			c-16.5,0-32-0.1-45.2-0.1c-13.2-0.1-24.2-0.1-32-0.2C16.5,25.8,12.1,25.8,12.1,25.8z"/>
	</g>
	<g>
		<linearGradient id="SVGID_5_" gradientUnits="userSpaceOnUse" x1="101.7474" y1="122.697" x2="101.7474" y2="22.1871">
			<stop  offset="0" style="stop-color:#FF7F7F"/>
			<stop  offset="0.1494" style="stop-color:#F3742A"/>
			<stop  offset="0.3005" style="stop-color:#FFFF00"/>
			<stop  offset="0.4516" style="stop-color:#00DD03"/>
			<stop  offset="0.5829" style="stop-color:#05C1FF"/>
			<stop  offset="0.734" style="stop-color:#00FFFF"/>
			<stop  offset="0.8818" style="stop-color:#A161E4"/>
			<stop  offset="1" style="stop-color:#000000"/>
		</linearGradient>
		<path fill="url(#SVGID_5_)" d="M12.1,22.7c0,0,4.6,0,12.5-0.1c8,0,19.3-0.1,33-0.2c13.7,0,29.6-0.1,46.7-0.1
			c8.5,0,17.4,0,26.3-0.1c4.5,0,9-0.1,13.6,0.2c4.6,0.3,9.1,1,13.5,2.1c4.4,1.2,8.7,3,12.7,5.3c2,1.2,3.8,2.5,5.6,4
			c1.7,1.5,3.3,3.1,4.8,4.8c2.9,3.5,5.3,7.4,6.9,11.5c1.7,4.1,2.7,8.4,3.2,12.6c0.6,4.2,0.7,8.5,0.5,12.6c-0.2,4.1-0.7,8.1-1.6,12
			c-0.9,3.8-2.2,7.5-3.9,10.7c-1.7,3.3-3.8,6.2-6.1,8.8c-4.6,5.1-10.1,8.5-15.2,10.7c-5.1,2.2-9.9,3.2-13.8,3.8
			c-3.9,0.6-7.1,0.7-9.2,0.8c-2.1,0-3.3,0-3.3,0s1.1,0,3.3-0.1c2.1-0.1,5.3-0.3,9.2-0.9c3.9-0.7,8.7-1.7,13.7-4
			c5-2.2,10.4-5.6,15-10.7c2.3-2.5,4.3-5.4,6-8.7c1.7-3.3,2.9-6.8,3.8-10.6c0.9-3.8,1.4-7.8,1.6-11.8c0.2-4.1,0-8.3-0.6-12.5
			C189,54.5,185.9,46,180,39.2c-1.4-1.7-3.1-3.2-4.7-4.7c-1.7-1.4-3.5-2.7-5.5-3.9c-3.9-2.3-8.1-4-12.4-5.2
			c-4.4-1.2-8.8-1.9-13.3-2.2c-4.5-0.3-9-0.2-13.5-0.2c-9,0-17.8,0-26.3-0.1c-17.1,0-33-0.1-46.7-0.1c-13.7-0.1-25-0.1-33-0.2
			C16.6,22.7,12.1,22.7,12.1,22.7z"/>
	</g>
	<g>
		<linearGradient id="SVGID_6_" gradientUnits="userSpaceOnUse" x1="103.0806" y1="125.7845" x2="103.0806" y2="19.0997">
			<stop  offset="0" style="stop-color:#FF7F7F"/>
			<stop  offset="0.1494" style="stop-color:#F3742A"/>
			<stop  offset="0.3005" style="stop-color:#FFFF00"/>
			<stop  offset="0.4516" style="stop-color:#00DD03"/>
			<stop  offset="0.5829" style="stop-color:#05C1FF"/>
			<stop  offset="0.734" style="stop-color:#00FFFF"/>
			<stop  offset="0.8818" style="stop-color:#A161E4"/>
			<stop  offset="1" style="stop-color:#000000"/>
		</linearGradient>
		<path fill="url(#SVGID_6_)" d="M12.1,19.6c0,0,18.8-0.1,47-0.3c14.1,0,30.5-0.1,48.1-0.1c8.8,0,17.9,0,27.1-0.1c2.3,0,4.6,0,7,0
			l3.5,0.2c1.2,0.1,2.3,0.2,3.5,0.3c4.7,0.5,9.3,1.5,13.8,3c4.5,1.6,8.8,3.7,12.6,6.5c1,0.7,1.9,1.4,2.8,2.2
			c0.9,0.8,1.8,1.5,2.6,2.4c1.7,1.6,3.2,3.5,4.6,5.3c1.4,1.9,2.6,3.9,3.6,5.9c1,2.1,2,4.2,2.7,6.4c1.5,4.3,2.3,8.8,2.7,13.2
			c0.4,4.4,0.4,8.8,0.2,13c-0.3,4.2-0.9,8.4-2,12.3c-2.1,7.9-5.9,14.8-10.8,19.9c-2.4,2.6-5.1,4.8-7.7,6.5c-2.7,1.8-5.4,3.2-8.1,4.3
			c-2.6,1.1-5.2,1.9-7.6,2.5c-2.4,0.6-4.6,1-6.7,1.3c-4.1,0.6-7.3,0.7-9.5,0.8c-2.2,0-3.4,0-3.4,0s1.2,0,3.4-0.1
			c2.2-0.1,5.4-0.3,9.5-0.9c2-0.3,4.3-0.8,6.6-1.4c2.4-0.6,4.9-1.5,7.5-2.6c5.2-2.2,10.8-5.7,15.6-10.9c4.8-5.1,8.5-11.9,10.5-19.7
			c2-7.8,2.5-16.4,1.6-25.1c-0.4-4.4-1.3-8.7-2.8-13c-0.7-2.1-1.6-4.2-2.6-6.2c-1.1-2-2.2-4-3.6-5.8c-1.4-1.8-2.8-3.6-4.5-5.2
			c-0.8-0.8-1.7-1.6-2.5-2.3c-0.9-0.7-1.8-1.5-2.8-2.1c-3.8-2.7-8-4.7-12.4-6.3c-4.4-1.5-9-2.5-13.6-3c-4.6-0.6-9.3-0.6-13.9-0.6
			c-9.2,0-18.3,0-27.1-0.1c-17.6,0-34-0.1-48.1-0.1C30.8,19.7,12.1,19.6,12.1,19.6z"/>
	</g>
	<g>
		<linearGradient id="SVGID_7_" gradientUnits="userSpaceOnUse" x1="104.4181" y1="128.8719" x2="104.4181" y2="16.0123">
			<stop  offset="0" style="stop-color:#FF7F7F"/>
			<stop  offset="0.1494" style="stop-color:#F3742A"/>
			<stop  offset="0.3005" style="stop-color:#FFFF00"/>
			<stop  offset="0.4516" style="stop-color:#00DD03"/>
			<stop  offset="0.5829" style="stop-color:#05C1FF"/>
			<stop  offset="0.734" style="stop-color:#00FFFF"/>
			<stop  offset="0.8818" style="stop-color:#A161E4"/>
			<stop  offset="1" style="stop-color:#000000"/>
		</linearGradient>
		<path fill="url(#SVGID_7_)" d="M12.1,16.5c0,0,19.4-0.1,48.4-0.3c14.5,0,31.5-0.1,49.6-0.1c9.1,0,18.5,0,28-0.1
			c9.5,0,19.4,1.2,28.4,5c9.1,3.7,16.9,10.3,22,18.4c2.6,4.1,4.5,8.5,5.7,13c1.3,4.5,2,9.1,2.3,13.7c0.6,9.1-0.1,18-2.4,26
			c-1.2,4-2.7,7.8-4.7,11.2c-2,3.4-4.3,6.5-6.8,9.1c-5.1,5.3-10.9,8.8-16.4,11c-5.5,2.2-10.6,3.3-14.8,3.9c-4.2,0.6-7.5,0.7-9.8,0.8
			c-2.3,0-3.5,0-3.5,0s1.2,0,3.5-0.1c2.3-0.1,5.6-0.3,9.8-1c4.2-0.7,9.2-1.8,14.6-4.1c5.4-2.3,11.1-5.8,16.2-11
			c2.5-2.6,4.8-5.6,6.7-9c1.9-3.4,3.4-7.1,4.6-11.1c2.3-8,2.9-16.8,2.3-25.8c-0.3-4.5-1.1-9.1-2.4-13.5c-1.3-4.5-3.2-8.8-5.7-12.8
			c-5-8-12.8-14.4-21.7-18c-8.9-3.7-18.6-5-28.1-5c-9.5,0-18.9,0-28-0.1c-18.2,0-35.1-0.1-49.6-0.1C31.4,16.6,12.1,16.5,12.1,16.5z"
			/>
	</g>
	<g>
		<linearGradient id="SVGID_8_" gradientUnits="userSpaceOnUse" x1="105.7552" y1="131.9593" x2="105.7552" y2="12.9248">
			<stop  offset="0" style="stop-color:#FF7F7F"/>
			<stop  offset="0.1494" style="stop-color:#F3742A"/>
			<stop  offset="0.3005" style="stop-color:#FFFF00"/>
			<stop  offset="0.4516" style="stop-color:#00DD03"/>
			<stop  offset="0.5829" style="stop-color:#05C1FF"/>
			<stop  offset="0.734" style="stop-color:#00FFFF"/>
			<stop  offset="0.8818" style="stop-color:#A161E4"/>
			<stop  offset="1" style="stop-color:#000000"/>
		</linearGradient>
		<path fill="url(#SVGID_8_)" d="M12.1,13.4c0,0,19.9-0.1,49.8-0.3c15,0,32.4-0.1,51.1-0.1c4.7,0,9.4,0,14.2,0c2.4,0,4.8,0,7.3,0
			c1.2,0,2.4,0,3.7,0c1.2,0,2.5,0,3.7,0.1c4.9,0.2,9.9,0.7,14.8,1.8c4.9,1,9.7,2.6,14.2,4.9c4.5,2.2,8.7,5.2,12.3,8.6
			c0.9,0.9,1.8,1.8,2.6,2.7c0.8,0.9,1.7,1.9,2.4,2.9c1.5,2,2.9,4.1,4.1,6.2c4.8,8.7,6.8,18.5,7.2,27.8c0.4,9.4-0.5,18.5-3,26.8
			c-2.5,8.2-6.9,15.4-12.3,20.7c-5.3,5.3-11.4,8.9-17,11.2c-5.7,2.3-10.9,3.4-15.2,4c-4.3,0.6-7.8,0.7-10.1,0.8c-2.3,0-3.6,0-3.6,0
			s1.2,0,3.6-0.1c2.3-0.1,5.8-0.3,10.1-1c4.3-0.7,9.5-1.9,15.1-4.2c5.6-2.3,11.5-5.9,16.8-11.2c5.2-5.3,9.5-12.3,12-20.5
			c2.5-8.2,3.3-17.2,2.9-26.5c-0.5-9.3-2.4-18.9-7.2-27.5c-1.2-2.1-2.5-4.2-4-6.1c-1.5-1.9-3.2-3.7-4.9-5.5
			c-3.6-3.4-7.7-6.2-12.1-8.4c-4.4-2.2-9.1-3.8-14-4.8c-4.8-1.1-9.7-1.6-14.6-1.8c-1.2,0-2.4,0-3.7-0.1c-1.2,0-2.4,0-3.7,0
			c-2.4,0-4.9,0-7.3,0c-4.8,0-9.6,0-14.2,0c-18.7,0-36.1-0.1-51.1-0.1C32,13.5,12.1,13.4,12.1,13.4z"/>
	</g>
	<g>
		<linearGradient id="SVGID_9_" gradientUnits="userSpaceOnUse" x1="107.0939" y1="135.0467" x2="107.0939" y2="9.8374">
			<stop  offset="0" style="stop-color:#FF7F7F"/>
			<stop  offset="0.1494" style="stop-color:#F3742A"/>
			<stop  offset="0.3005" style="stop-color:#FFFF00"/>
			<stop  offset="0.4516" style="stop-color:#00DD03"/>
			<stop  offset="0.5829" style="stop-color:#05C1FF"/>
			<stop  offset="0.734" style="stop-color:#00FFFF"/>
			<stop  offset="0.8818" style="stop-color:#A161E4"/>
			<stop  offset="1" style="stop-color:#000000"/>
		</linearGradient>
		<path fill="url(#SVGID_9_)" d="M12.1,10.3c0,0,20.5-0.1,51.3-0.3c15.4,0,33.3-0.1,52.6-0.1c4.8,0,9.7,0,14.6,0c5,0,9.9-0.1,15,0.2
			c5.1,0.4,10.1,1.1,15.1,2.5c2.5,0.6,4.9,1.5,7.3,2.4c2.4,1,4.7,2.1,7,3.4c4.5,2.6,8.6,5.9,12.1,9.6c3.5,3.8,6.4,8.1,8.6,12.7
			c2.2,4.6,3.8,9.4,4.8,14.3c1,4.9,1.5,9.8,1.6,14.6c0.2,9.6-0.8,19.1-3.6,27.5c-2.8,8.4-7.4,15.7-12.9,21.1
			c-5.5,5.4-11.8,9-17.6,11.3c-5.9,2.3-11.2,3.4-15.7,4.1c-4.4,0.6-8,0.7-10.4,0.9c-2.4,0-3.7,0-3.7,0s1.3,0,3.7-0.1
			c2.4-0.1,5.9-0.3,10.4-1c4.4-0.7,9.8-1.9,15.6-4.2c5.7-2.4,11.9-6,17.4-11.4c5.5-5.4,10-12.6,12.7-20.9c2.7-8.3,3.8-17.7,3.5-27.2
			c-0.1-4.8-0.6-9.6-1.6-14.5c-1-4.8-2.6-9.6-4.8-14.1c-2.2-4.5-5.1-8.7-8.5-12.4c-3.5-3.7-7.5-6.9-11.9-9.4
			c-2.2-1.3-4.5-2.4-6.8-3.4c-2.4-0.9-4.8-1.8-7.2-2.4c-4.9-1.3-9.9-2.1-14.9-2.5c-5-0.4-10-0.2-15-0.3c-4.9,0-9.8,0-14.6,0
			c-19.2,0-37.2-0.1-52.6-0.1C32.6,10.4,12.1,10.3,12.1,10.3z"/>
	</g>
	<g>
		<linearGradient id="SVGID_10_" gradientUnits="userSpaceOnUse" x1="108.431" y1="138.1341" x2="108.431" y2="6.75">
			<stop  offset="0" style="stop-color:#FF7F7F"/>
			<stop  offset="0.1494" style="stop-color:#F3742A"/>
			<stop  offset="0.3005" style="stop-color:#FFFF00"/>
			<stop  offset="0.4516" style="stop-color:#00DD03"/>
			<stop  offset="0.5829" style="stop-color:#05C1FF"/>
			<stop  offset="0.734" style="stop-color:#00FFFF"/>
			<stop  offset="0.8818" style="stop-color:#A161E4"/>
			<stop  offset="1" style="stop-color:#000000"/>
		</linearGradient>
		<path fill="url(#SVGID_10_)" d="M12.1,7.3c0,0,21.1-0.1,52.7-0.3c15.8,0,34.3-0.1,54.1-0.1c4.9,0,10,0,15.1,0
			c5.1,0,10.3,0,15.5,0.6c5.2,0.6,10.4,1.6,15.4,3.2c2.5,0.8,5,1.8,7.4,2.9c2.4,1.2,4.7,2.4,6.9,3.9c8.9,5.8,15.9,14.5,20,24.1
			c4.1,9.6,5.6,20,5.7,29.9c0.1,9.9-1.2,19.6-4.2,28.2c-1.5,4.3-3.4,8.3-5.8,11.9c-2.3,3.6-5,6.8-7.9,9.6
			c-5.7,5.5-12.2,9.1-18.2,11.5c-6,2.3-11.5,3.5-16.1,4.1c-4.6,0.7-8.2,0.8-10.7,0.9c-2.5,0-3.8,0-3.8,0s1.3,0,3.8-0.1
			c2.5-0.1,6.1-0.3,10.7-1c4.6-0.7,10.1-1.9,16-4.3c5.9-2.4,12.3-6.1,18-11.6c2.8-2.7,5.5-5.9,7.7-9.5c2.3-3.6,4.2-7.6,5.7-11.8
			c3-8.5,4.2-18.1,4-28c-0.1-9.8-1.6-20.1-5.7-29.6c-4.1-9.5-11-17.9-19.7-23.6c-2.2-1.5-4.5-2.7-6.8-3.9c-2.4-1.1-4.8-2.1-7.3-2.9
			c-5-1.6-10.1-2.7-15.2-3.2c-5.1-0.6-10.3-0.6-15.4-0.6c-5.1,0-10.1,0-15.1,0c-19.8,0-38.2-0.1-54.1-0.1
			C33.2,7.4,12.1,7.3,12.1,7.3z"/>
	</g>
</g>
<g>
	<path d="M88.9,86.5l13.8,10.7c1.9,1.1,4.4,2,3.2,3.9l-1.3,2.2c-1.1,1.9-3.4,0-5.3-1.1l-15.8-6.5c-1.9-1.1-2.6-3.6-1.5-5.5l1.3-2.2
		C84.5,86.1,87,85.4,88.9,86.5z"/>
	<path d="M105.4,116.5l12.4-20.9c0.6-1,0.3-2.2-0.7-2.8l-5.5-3.3c-1-0.6-2.2-0.3-2.8,0.7l-12.4,20.9c-0.6,1-0.3,2.2,0.7,2.8l5.5,3.3
		C103.5,117.8,104.8,117.5,105.4,116.5z"/>
	<g>
		<polygon points="117.9,96.4 105.3,117.2 140.2,138.3 139.8,109.6 		"/>
		<g>
			<path fill="#FFFFFF" d="M118.7,102c0,0,0.4,0.1,1,0.4c0.6,0.3,1.5,0.6,2.5,1.1c2.1,1,4.8,2.3,7.5,3.7c2.7,1.4,5.3,2.9,7.3,4.1
				c1,0.6,1.8,1.1,2.3,1.5c0.6,0.4,0.9,0.6,0.9,0.6s-0.4-0.1-1-0.4c-0.6-0.3-1.5-0.6-2.5-1.1c-2.1-1-4.8-2.3-7.5-3.7
				c-2.7-1.4-5.3-2.9-7.3-4.1c-1-0.6-1.8-1.1-2.3-1.5C119,102.2,118.7,102,118.7,102z"/>
		</g>
		<g>
			<path fill="#FFFFFF" d="M125.3,109.1c0,0,0.2,0.1,0.7,0.2c0.4,0.2,1,0.4,1.7,0.7c1.4,0.6,3.3,1.5,5.1,2.5c1.8,1,3.6,2,4.9,2.9
				c0.7,0.4,1.2,0.8,1.6,1.1c0.4,0.3,0.6,0.4,0.6,0.4s-0.2-0.1-0.7-0.2c-0.4-0.2-1-0.4-1.7-0.7c-1.4-0.6-3.3-1.5-5.1-2.5
				c-1.8-1-3.6-2-4.9-2.9c-0.7-0.4-1.2-0.8-1.6-1C125.5,109.2,125.3,109.1,125.3,109.1z"/>
		</g>
		<g>
			<path fill="#FFFFFF" d="M118.5,109.1c0,0,0.4,0.1,1,0.4c0.6,0.3,1.5,0.6,2.5,1.1c2.1,1,4.8,2.3,7.5,3.7c2.7,1.4,5.3,2.9,7.3,4.1
				c1,0.6,1.8,1.1,2.3,1.5c0.6,0.4,0.9,0.6,0.9,0.6s-0.4-0.1-1-0.4c-0.6-0.3-1.5-0.6-2.5-1.1c-2.1-1-4.8-2.3-7.5-3.7
				c-2.7-1.4-5.3-2.9-7.3-4.1c-1-0.6-1.8-1.1-2.3-1.5C118.8,109.3,118.5,109.1,118.5,109.1z"/>
		</g>
		<g>
			<path fill="#FFFFFF" d="M124.5,115.8c0,0,0.3,0.1,0.7,0.3c0.4,0.2,1.1,0.4,1.8,0.8c1.5,0.7,3.5,1.6,5.4,2.6c1.9,1,3.8,2.1,5.2,3
				c0.7,0.4,1.3,0.8,1.7,1.1c0.4,0.3,0.6,0.4,0.6,0.4s-0.3-0.1-0.7-0.3c-0.4-0.2-1.1-0.4-1.8-0.8c-1.5-0.7-3.5-1.6-5.4-2.7
				c-1.9-1-3.8-2.1-5.2-3c-0.7-0.4-1.3-0.8-1.7-1.1C124.7,115.9,124.5,115.8,124.5,115.8z"/>
		</g>
		<g>
			<path fill="#FFFFFF" d="M118.7,115.5c0,0,0.4,0.1,1,0.4c0.6,0.3,1.5,0.6,2.5,1.1c2.1,1,4.8,2.3,7.5,3.7c2.7,1.4,5.3,2.9,7.3,4.1
				c1,0.6,1.8,1.1,2.3,1.5c0.6,0.4,0.9,0.6,0.9,0.6s-0.4-0.1-1-0.4c-0.6-0.3-1.5-0.6-2.5-1.1c-2.1-1-4.8-2.3-7.5-3.7
				c-2.7-1.4-5.3-2.9-7.3-4.1c-1-0.6-1.8-1.1-2.3-1.5C119,115.7,118.7,115.5,118.7,115.5z"/>
		</g>
		<g>
			<path fill="#FFFFFF" d="M124.1,121.8c0,0,0.3,0.1,0.7,0.3c0.5,0.2,1.1,0.5,1.9,0.8c1.6,0.7,3.6,1.7,5.6,2.8c2,1.1,4,2.2,5.4,3.1
				c0.7,0.5,1.3,0.9,1.7,1.1c0.4,0.3,0.6,0.5,0.6,0.5s-0.3-0.1-0.7-0.3c-0.5-0.2-1.1-0.5-1.9-0.8c-1.6-0.7-3.6-1.7-5.6-2.8
				c-2-1.1-4-2.2-5.4-3.1c-0.7-0.5-1.3-0.9-1.7-1.1C124.3,122,124.1,121.8,124.1,121.8z"/>
		</g>
		<g>
			<path fill="#FFFFFF" d="M118.7,122.6c0,0,0.4,0.1,1,0.4c0.6,0.3,1.5,0.6,2.5,1.1c2.1,1,4.8,2.3,7.5,3.7c2.7,1.4,5.3,2.9,7.3,4.1
				c1,0.6,1.8,1.1,2.3,1.5c0.6,0.4,0.9,0.6,0.9,0.6s-0.4-0.1-1-0.4c-0.6-0.3-1.5-0.6-2.5-1.1c-2.1-1-4.8-2.3-7.5-3.7
				c-2.7-1.4-5.3-2.9-7.3-4.1c-1-0.6-1.8-1.1-2.3-1.5C119,122.8,118.7,122.6,118.7,122.6z"/>
		</g>
	</g>
	<circle fill="#FFFFFF" cx="88.1" cy="92.2" r="1.2"/>
</g>
<g>
	<path d="M17.7,60.7c-1.9,0-3.4-0.5-4.4-1.6c-1-1.1-1.6-2.5-1.6-4.5h2.5c0,1.2,0.3,2.2,0.9,2.8c0.6,0.7,1.5,1,2.6,1
		c1.1,0,1.9-0.3,2.5-1c0.6-0.7,0.9-1.6,0.9-2.9V43.1h2.5v11.5c0,1.9-0.5,3.4-1.6,4.5C21.1,60.2,19.6,60.7,17.7,60.7z M16.7,45.5
		v-2.3h5.7v2.3H16.7z"/>
	<path d="M25.9,60.5l5-17.3h3.5l5,17.3h-2.6l-4.1-15.2h-0.2l-4.1,15.2H25.9z M28.2,56.3v-2.3H37v2.3H28.2z"/>
	<path d="M46.8,60.7c-1,0-1.9-0.1-2.8-0.2c-0.9-0.2-1.7-0.4-2.4-0.7l0.3-2.5c0.9,0.4,1.8,0.7,2.6,0.9c0.8,0.2,1.6,0.3,2.4,0.3
		c1.1,0,2-0.2,2.5-0.6c0.6-0.4,0.8-1,0.8-1.8c0-1-0.5-1.8-1.6-2.3l-3-1.4c-1.2-0.5-2.1-1.2-2.7-1.9c-0.6-0.8-0.9-1.7-0.9-2.8
		c0-1.5,0.5-2.7,1.4-3.5c0.9-0.8,2.2-1.2,3.9-1.2c1.2,0,2.2,0.2,3.1,0.5c0.9,0.3,1.8,0.9,2.6,1.7l-1.7,1.7c-0.7-0.6-1.4-1-2-1.3
		c-0.6-0.3-1.3-0.4-1.9-0.4c-0.8,0-1.5,0.2-1.9,0.6c-0.5,0.4-0.7,1-0.7,1.8c0,0.6,0.2,1,0.5,1.4c0.3,0.4,0.7,0.7,1.3,0.9l2.5,1.2
		c1.3,0.6,2.3,1.3,2.9,2c0.7,0.8,1,1.7,1,2.9c0,1.6-0.5,2.7-1.5,3.5C50.4,60.3,48.8,60.7,46.8,60.7z"/>
	<path d="M62,60.7c-4.3,0-6.4-2.9-6.4-8.8c0-6,2.1-9,6.4-9c4.3,0,6.4,3,6.4,9C68.4,57.8,66.3,60.7,62,60.7z M62,58.5
		c2.5,0,3.8-2.2,3.8-6.5c0-4.5-1.3-6.8-3.8-6.8c-2.5,0-3.8,2.3-3.8,6.8C58.2,56.3,59.5,58.5,62,58.5z"/>
	<path d="M71.1,60.5V43.1h2.5v17.3H71.1z M78.9,60.5l-5-13.2h-1.1v-4.2h1.6l5,13.2H80v4.2H78.9z M79.6,60.5V43.1h2.5v17.3H79.6z"/>
</g>
<g>
	<path fill="#777777" d="M14.3,83.5l-2-17.3h2.6l1.5,15.4h0.2l1.6-11h2.4L19.8,73h-0.5L18,83.5H14.3z M20.7,83.5L19.5,73H19
		l-0.8-2.4h2.4l1.6,11h0.2l1.5-15.4h2.6l-2,17.3H20.7z"/>
	<path fill="#777777" d="M28.7,83.5V66.2h2.5v17.3H28.7z M28.7,68.5v-2.3h11.5v2.3H28.7z M28.7,76v-2.3h9.3V76H28.7z M28.7,83.5
		v-2.3h11.5v2.3H28.7z"/>
	<path fill="#777777" d="M43.3,83.5V66.2h2.5v17.3H43.3z M44.9,75v-1.2h5V75H44.9z M45.7,74.3v-1.1h2.8c0.9,0,1.6-0.2,2.1-0.6
		c0.5-0.4,0.8-1,0.8-1.8c0-0.7-0.3-1.3-0.8-1.7c-0.5-0.4-1.3-0.6-2.3-0.6h-2.6l-0.3-2.3h3c1.8,0,3.1,0.4,4.1,1.1
		c1,0.8,1.4,1.8,1.4,3.3c0,1.2-0.5,2.1-1.4,2.8c-0.9,0.6-2.2,1-3.9,1H45.7z M45.7,83.5v-2.3h3.6c1.1,0,1.9-0.2,2.5-0.7
		c0.6-0.5,0.9-1.2,0.9-2.1c0-0.9-0.3-1.6-0.9-2.1c-0.6-0.5-1.5-0.8-2.6-0.8h-3.3l-0.3-1.1h4.2c1.8,0,3.1,0.4,4.1,1.1
		c1,0.8,1.4,1.8,1.4,3.2c0,1.5-0.5,2.7-1.4,3.5c-0.9,0.8-2.2,1.2-3.9,1.2H45.7z"/>
</g>
<g>
	<path d="M83.3,83.5V66.2h2.5v17.3H83.3z M85.6,83.5v-2.3h1.8c1.8,0,3.1-0.5,4-1.5c0.9-1,1.3-2.5,1.3-4.6c0-2.2-0.4-3.9-1.3-5
		c-0.9-1.1-2.2-1.6-4-1.6h-1.8l-0.3-2.3h2.1c5.3,0,7.9,3,7.9,8.9c0,5.6-2.6,8.4-7.9,8.4H85.6z"/>
	<path d="M98.2,83.5V66.2h2.5v17.3H98.2z M98.2,68.5v-2.3h11.5v2.3H98.2z M98.2,76v-2.3h9.3V76H98.2z M98.2,83.5v-2.3h11.5v2.3H98.2
		z"/>
	<path d="M117.6,83.8c-1,0-1.9-0.1-2.8-0.2c-0.9-0.2-1.7-0.4-2.4-0.7l0.3-2.5c0.9,0.4,1.8,0.7,2.6,0.9c0.8,0.2,1.6,0.3,2.4,0.3
		c1.1,0,2-0.2,2.5-0.6c0.6-0.4,0.8-1,0.8-1.8c0-1-0.5-1.8-1.6-2.3l-3-1.4c-1.2-0.5-2.1-1.2-2.7-1.9c-0.6-0.8-0.9-1.7-0.9-2.8
		c0-1.5,0.5-2.7,1.4-3.5c0.9-0.8,2.2-1.2,3.9-1.2c1.2,0,2.2,0.2,3.1,0.5s1.8,0.9,2.6,1.7l-1.7,1.7c-0.7-0.6-1.4-1-2-1.3
		c-0.6-0.3-1.3-0.4-1.9-0.4c-0.8,0-1.5,0.2-1.9,0.6c-0.5,0.4-0.7,1-0.7,1.8c0,0.6,0.2,1,0.5,1.4c0.3,0.4,0.7,0.7,1.3,0.9l2.5,1.2
		c1.3,0.6,2.3,1.3,2.9,2s1,1.7,1,2.9c0,1.6-0.5,2.7-1.5,3.5C121.2,83.4,119.7,83.8,117.6,83.8z"/>
	<path d="M127.6,68.5v-2.3h10.5v2.3H127.6z M127.6,83.5v-2.3h10.5v2.3H127.6z M131.5,83.5V66.2h2.5v17.3H131.5z"/>
	<path d="M148.7,83.8c-2.6,0-4.5-0.7-5.8-2.2s-1.9-3.7-1.9-6.7c0-2.8,0.7-5,2-6.6c1.3-1.5,3.2-2.3,5.7-2.3c1.2,0,2.3,0.2,3.2,0.6
		c0.9,0.4,1.6,0.9,2,1.6l-1.8,1.8c-0.4-0.6-0.8-1-1.4-1.3c-0.6-0.3-1.2-0.5-1.8-0.5c-1.6,0-2.9,0.6-3.8,1.7
		c-0.9,1.1-1.4,2.7-1.4,4.8c0,2.3,0.5,4,1.4,5.1c0.9,1.1,2.3,1.7,4.1,1.7c0.8,0,1.5-0.1,2-0.2c0.6-0.2,1.1-0.3,1.4-0.4l1,2.1
		c-0.3,0.1-0.9,0.3-1.8,0.4C150.8,83.7,149.8,83.8,148.7,83.8z M147.6,77.2v-2.3h5.8v2.3H147.6z M151,83v-8.2h2.4V83H151z"/>
	<path d="M156.6,83.5V66.2h2.5v17.3H156.6z M164.4,83.5l-5-13.2h-1.1v-4.2h1.6l5,13.2h0.6v4.2H164.4z M165.1,83.5V66.2h2.5v17.3
		H165.1z"/>
</g>
<g>
	<path d="M146.7,65.1V64c1.1-0.6,1.9-1.2,2.4-1.8c0.5-0.6,0.8-1.3,0.8-2c0-0.4-0.1-0.7-0.3-0.9s-0.5-0.3-0.9-0.3
		c-0.3,0-0.5,0.1-0.8,0.2c-0.3,0.2-0.5,0.4-0.7,0.6l-0.7-0.7c0.2-0.3,0.5-0.6,1-0.8c0.4-0.2,0.8-0.3,1.3-0.3c0.7,0,1.3,0.2,1.6,0.5
		c0.4,0.3,0.5,0.9,0.5,1.6s-0.2,1.4-0.7,2s-1.1,1.3-2,1.9v1.1H146.7z M147,65.1v-0.9h4.2v0.9H147z"/>
	<path d="M154.7,65.2c-1.6,0-2.4-1.2-2.4-3.5c0-2.4,0.8-3.6,2.4-3.6c1.6,0,2.4,1.2,2.4,3.6C157.1,64,156.3,65.2,154.7,65.2z
		 M154.7,64.3c0.9,0,1.3-0.9,1.3-2.6c0-1.8-0.4-2.7-1.3-2.7s-1.3,0.9-1.3,2.7C153.4,63.4,153.8,64.3,154.7,64.3z M154.7,62.4
		c-0.2,0-0.4-0.1-0.5-0.2c-0.1-0.1-0.2-0.3-0.2-0.5c0-0.2,0.1-0.4,0.2-0.5c0.1-0.1,0.3-0.2,0.5-0.2c0.2,0,0.4,0.1,0.5,0.2
		c0.1,0.1,0.2,0.3,0.2,0.5c0,0.2-0.1,0.4-0.2,0.5C155.1,62.3,154.9,62.4,154.7,62.4z"/>
	<path d="M158.4,65.1V64c1.1-0.6,1.9-1.2,2.4-1.8c0.5-0.6,0.8-1.3,0.8-2c0-0.4-0.1-0.7-0.3-0.9s-0.5-0.3-0.9-0.3
		c-0.3,0-0.5,0.1-0.8,0.2c-0.3,0.2-0.5,0.4-0.7,0.6l-0.7-0.7c0.2-0.3,0.5-0.6,1-0.8c0.4-0.2,0.8-0.3,1.3-0.3c0.7,0,1.3,0.2,1.6,0.5
		c0.4,0.3,0.5,0.9,0.5,1.6s-0.2,1.4-0.7,2s-1.1,1.3-2,1.9v1.1H158.4z M158.7,65.1v-0.9h4.2v0.9H158.7z"/>
	<path d="M164.2,65.1V64c1.1-0.6,1.9-1.2,2.4-1.8c0.5-0.6,0.8-1.3,0.8-2c0-0.4-0.1-0.7-0.3-0.9s-0.5-0.3-0.9-0.3
		c-0.3,0-0.5,0.1-0.8,0.2c-0.3,0.2-0.5,0.4-0.7,0.6l-0.7-0.7c0.2-0.3,0.5-0.6,1-0.8c0.4-0.2,0.8-0.3,1.3-0.3c0.7,0,1.3,0.2,1.6,0.5
		c0.4,0.3,0.5,0.9,0.5,1.6s-0.2,1.4-0.7,2s-1.1,1.3-2,1.9v1.1H164.2z M164.5,65.1v-0.9h4.2v0.9H164.5z"/>
</g>
</svg>
