<?xml version="1.0" encoding="utf-8"?>
<!-- Generator: Adobe Illustrator 18.1.1, SVG Export Plug-In . SVG Version: 6.00 Build 0)  -->
<svg version="1.1" id="圖層_1" xmlns="http://www.w3.org/2000/svg" xmlns:xlink="http://www.w3.org/1999/xlink" x="0px" y="0px"
	 viewBox="0 0 210 144" enable-background="new 0 0 210 144" xml:space="preserve">
<g>
	<g>
		<g>
			<linearGradient id="SVGID_1_" gradientUnits="userSpaceOnUse" x1="104.4564" y1="95.2048" x2="104.4564" y2="27.2168">
				<stop  offset="0" style="stop-color:#FF7F7F"/>
				<stop  offset="0.1494" style="stop-color:#F3742A"/>
				<stop  offset="0.3005" style="stop-color:#FFFF00"/>
				<stop  offset="0.4516" style="stop-color:#00DD03"/>
				<stop  offset="0.5829" style="stop-color:#05C1FF"/>
				<stop  offset="0.734" style="stop-color:#00FFFF"/>
				<stop  offset="0.8818" style="stop-color:#A161E4"/>
				<stop  offset="1" style="stop-color:#000000"/>
			</linearGradient>
			<path fill="url(#SVGID_1_)" d="M141.8,94.7c0,0,0.9,0,2.6-0.1c1.7-0.1,4.1-0.2,7.2-0.8c1.5-0.3,3.2-0.6,5-1.2
				c1.8-0.5,3.7-1.2,5.6-2.2c1.9-0.9,3.9-2.1,5.8-3.6c1.9-1.5,3.7-3.3,5.3-5.4c3.2-4.2,5.2-9.8,5.7-15.9c0.3-3,0.3-6.2,0-9.3
				c-0.1-1.6-0.4-3.2-0.8-4.7c-0.4-1.6-0.9-3.1-1.5-4.7c-0.6-1.5-1.4-3-2.3-4.4c-0.9-1.4-1.9-2.7-3.1-4c-1.1-1.2-2.5-2.3-3.8-3.4
				c-1.4-1-2.8-1.9-4.4-2.7c-6.2-3.1-13.4-4.2-20.4-4.3c-14.2,0-28.5-0.1-41.8-0.1C87.6,28.1,75.2,28,64.5,28
				c-21.4-0.2-35.6-0.3-35.6-0.3s14.2-0.1,35.6-0.3c10.7,0,23.1-0.1,36.5-0.2c13.3,0,27.6,0,41.8-0.1c7.1,0.1,14.4,1.2,20.8,4.4
				c1.6,0.8,3.1,1.7,4.5,2.8c1.4,1,2.7,2.2,3.9,3.5c1.2,1.3,2.3,2.6,3.2,4.1c0.9,1.5,1.7,3,2.3,4.6c0.6,1.6,1.1,3.2,1.5,4.8
				c0.3,1.6,0.6,3.2,0.7,4.9c0.3,3.2,0.2,6.4-0.1,9.5c-0.6,6.1-2.7,11.8-6,16.1c-3.2,4.4-7.4,7.2-11.4,9.1c-2,0.9-3.9,1.6-5.7,2.1
				c-1.8,0.5-3.5,0.8-5.1,1.1c-3.1,0.5-5.5,0.6-7.2,0.6C142.7,94.7,141.8,94.7,141.8,94.7z"/>
		</g>
		<g>
			<linearGradient id="SVGID_2_" gradientUnits="userSpaceOnUse" x1="105.6583" y1="97.9693" x2="105.6583" y2="24.4522">
				<stop  offset="0" style="stop-color:#FF7F7F"/>
				<stop  offset="0.1494" style="stop-color:#F3742A"/>
				<stop  offset="0.3005" style="stop-color:#FFFF00"/>
				<stop  offset="0.4516" style="stop-color:#00DD03"/>
				<stop  offset="0.5829" style="stop-color:#05C1FF"/>
				<stop  offset="0.734" style="stop-color:#00FFFF"/>
				<stop  offset="0.8818" style="stop-color:#A161E4"/>
				<stop  offset="1" style="stop-color:#000000"/>
			</linearGradient>
			<path fill="url(#SVGID_2_)" d="M28.9,25c0,0,14.8-0.1,36.9-0.3c11.1,0,24-0.1,37.8-0.2c6.9,0,14.1,0,21.3,0c3.6,0,7.3,0,11,0
				c3.7,0,7.3-0.1,11.1,0.2c7.4,0.5,14.9,2.3,21.1,6.4c1.6,1,3,2.1,4.3,3.4c1.3,1.2,2.6,2.6,3.6,4.1c1.1,1.4,2,3,2.8,4.6
				c0.8,1.6,1.4,3.2,1.9,4.9c1,3.3,1.5,6.8,1.7,10.1c0.2,3.3,0,6.6-0.5,9.8c-0.9,6.3-3.3,12.1-6.8,16.5c-3.5,4.4-7.8,7.3-12,9.2
				c-4.1,1.9-8,2.7-11.2,3.2c-3.2,0.5-5.7,0.6-7.5,0.7c-1.7,0-2.7,0-2.7,0s0.9,0,2.6-0.1c1.7-0.1,4.3-0.2,7.4-0.8
				c3.2-0.5,7-1.5,11.1-3.4c4-1.9,8.3-4.9,11.7-9.2c3.4-4.3,5.7-10,6.5-16.2c0.4-3.1,0.6-6.4,0.4-9.7c-0.2-3.3-0.6-6.7-1.7-9.9
				c-0.5-1.6-1.1-3.2-1.9-4.8c-0.8-1.6-1.7-3-2.7-4.4c-1.1-1.4-2.2-2.7-3.5-3.9c-1.3-1.2-2.7-2.3-4.2-3.3c-6-3.9-13.4-5.7-20.6-6.2
				c-3.6-0.3-7.3-0.2-11-0.2c-3.7,0-7.3,0-11,0c-7.3,0-14.4,0-21.3,0c-13.8-0.1-26.7-0.1-37.8-0.2C43.7,25.1,28.9,25,28.9,25z"/>
		</g>
		<g>
			<linearGradient id="SVGID_3_" gradientUnits="userSpaceOnUse" x1="106.8551" y1="100.7339" x2="106.8551" y2="21.6876">
				<stop  offset="0" style="stop-color:#FF7F7F"/>
				<stop  offset="0.1494" style="stop-color:#F3742A"/>
				<stop  offset="0.3005" style="stop-color:#FFFF00"/>
				<stop  offset="0.4516" style="stop-color:#00DD03"/>
				<stop  offset="0.5829" style="stop-color:#05C1FF"/>
				<stop  offset="0.734" style="stop-color:#00FFFF"/>
				<stop  offset="0.8818" style="stop-color:#A161E4"/>
				<stop  offset="1" style="stop-color:#000000"/>
			</linearGradient>
			<path fill="url(#SVGID_3_)" d="M28.9,22.2c0,0,15.3-0.1,38.2-0.3c11.5,0,24.8-0.1,39.1-0.2c7.2,0,14.6,0,22.1,0
				c3.8,0,7.5,0,11.3,0c3.8,0,7.7,0.1,11.5,0.6c3.8,0.5,7.6,1.4,11.2,2.8c1.8,0.7,3.5,1.5,5.2,2.5c1.7,1,3.2,2,4.7,3.2
				c1.5,1.2,2.8,2.5,4.1,4c1.2,1.4,2.3,3,3.3,4.6c1,1.6,1.7,3.3,2.4,5c0.6,1.7,1.2,3.5,1.6,5.2c0.8,3.5,1.1,7.1,1.2,10.5
				c0,3.5-0.2,6.9-0.8,10.1c-0.6,3.3-1.5,6.4-2.8,9.2c-1.3,2.8-2.9,5.4-4.8,7.6c-3.7,4.5-8.3,7.4-12.5,9.3
				c-4.3,1.9-8.3,2.8-11.6,3.3c-3.3,0.5-5.9,0.6-7.7,0.7c-1.8,0-2.7,0-2.7,0s1,0,2.7-0.1c1.8-0.1,4.4-0.3,7.7-0.8
				c3.3-0.6,7.3-1.5,11.5-3.4c4.2-1.9,8.6-4.9,12.2-9.3c1.8-2.2,3.4-4.7,4.6-7.5c1.2-2.8,2.1-5.9,2.7-9.1c0.6-3.2,0.8-6.6,0.7-10
				c-0.1-3.4-0.4-6.9-1.2-10.4c-0.4-1.7-0.9-3.4-1.6-5.1c-0.7-1.7-1.5-3.3-2.4-4.9c-0.9-1.5-2-3-3.2-4.4c-1.2-1.4-2.6-2.7-4-3.8
				c-1.5-1.2-3-2.2-4.6-3.1c-1.6-0.9-3.3-1.7-5.1-2.4c-3.5-1.3-7.2-2.2-11-2.7c-3.8-0.5-7.5-0.6-11.3-0.6c-3.8,0-7.6,0-11.3,0
				c-7.5,0-14.9,0-22.1,0c-14.3-0.1-27.7-0.1-39.1-0.2C44.2,22.3,28.9,22.2,28.9,22.2z"/>
		</g>
		<g>
			<linearGradient id="SVGID_4_" gradientUnits="userSpaceOnUse" x1="108.0215" y1="103.4985" x2="108.0215" y2="18.9231">
				<stop  offset="0" style="stop-color:#FF7F7F"/>
				<stop  offset="0.1494" style="stop-color:#F3742A"/>
				<stop  offset="0.3005" style="stop-color:#FFFF00"/>
				<stop  offset="0.4516" style="stop-color:#00DD03"/>
				<stop  offset="0.5829" style="stop-color:#05C1FF"/>
				<stop  offset="0.734" style="stop-color:#00FFFF"/>
				<stop  offset="0.8818" style="stop-color:#A161E4"/>
				<stop  offset="1" style="stop-color:#000000"/>
			</linearGradient>
			<path fill="url(#SVGID_4_)" d="M28.9,19.4c0,0,3.9,0,10.9-0.1c6.9,0,16.8-0.2,28.6-0.2c11.8,0,25.7-0.1,40.4-0.1
				c7.4,0,15,0,22.8-0.1c3.9,0,7.8,0,11.7,0c3.9,0.1,7.9,0.4,11.8,1.2c7.8,1.5,15.4,5,21,10.6c1.4,1.4,2.7,2.9,3.8,4.5
				c1.1,1.6,2.1,3.3,3,5c1.7,3.5,2.8,7.1,3.4,10.8c0.7,3.7,0.8,7.3,0.8,10.9c-0.1,3.6-0.4,7.1-1.1,10.4c-1.4,6.7-4.3,12.7-8.3,17.2
				c-3.9,4.5-8.7,7.5-13.1,9.4c-4.4,1.9-8.6,2.8-12,3.3c-3.4,0.5-6.1,0.6-8,0.7c-1.8,0-2.8,0-2.8,0s1,0,2.8-0.1
				c1.8-0.1,4.6-0.3,8-0.8c3.4-0.6,7.5-1.5,11.9-3.5c4.3-2,9-5,12.8-9.4c3.9-4.4,6.7-10.3,8.1-16.9c0.7-3.3,1-6.8,1.1-10.3
				c0-3.5-0.2-7.2-0.8-10.8c-0.7-3.6-1.7-7.2-3.4-10.6c-0.8-1.7-1.8-3.3-2.9-4.9c-1.1-1.6-2.3-3-3.7-4.3
				c-5.5-5.4-12.9-8.8-20.5-10.2c-7.7-1.7-15.6-1.2-23.4-1.3c-7.8,0-15.4,0-22.8-0.1c-14.8,0-28.6-0.1-40.4-0.1
				c-11.8,0-21.7-0.1-28.6-0.2C32.8,19.5,28.9,19.4,28.9,19.4z"/>
		</g>
		<g>
			<linearGradient id="SVGID_5_" gradientUnits="userSpaceOnUse" x1="109.2255" y1="106.2631" x2="109.2255" y2="16.1585">
				<stop  offset="0" style="stop-color:#FF7F7F"/>
				<stop  offset="0.1494" style="stop-color:#F3742A"/>
				<stop  offset="0.3005" style="stop-color:#FFFF00"/>
				<stop  offset="0.4516" style="stop-color:#00DD03"/>
				<stop  offset="0.5829" style="stop-color:#05C1FF"/>
				<stop  offset="0.734" style="stop-color:#00FFFF"/>
				<stop  offset="0.8818" style="stop-color:#A161E4"/>
				<stop  offset="1" style="stop-color:#000000"/>
			</linearGradient>
			<path fill="url(#SVGID_5_)" d="M28.9,16.7c0,0,4.1,0,11.2-0.1c7.1,0,17.3-0.2,29.5-0.2c12.2,0,26.5-0.1,41.8-0.1
				c7.6,0,15.5,0,23.6-0.1c4,0,8-0.1,12.1,0.1c4.1,0.3,8.2,0.9,12.1,1.9c4,1.1,7.8,2.6,11.3,4.8c1.8,1,3.4,2.3,5,3.6
				c1.6,1.3,3,2.8,4.3,4.3c5.3,6.2,8.1,14,9.1,21.6c0.5,3.8,0.6,7.6,0.4,11.3c-0.2,3.7-0.6,7.3-1.5,10.7c-0.8,3.4-2,6.7-3.5,9.6
				c-1.5,2.9-3.4,5.6-5.5,7.9c-4.1,4.6-9.1,7.6-13.6,9.6c-4.6,2-8.9,2.8-12.4,3.4c-3.5,0.5-6.3,0.6-8.2,0.7c-1.9,0-2.9,0-2.9,0
				s1,0,2.9-0.1c1.9-0.1,4.7-0.3,8.2-0.8c3.5-0.6,7.8-1.5,12.3-3.6c4.5-2,9.3-5.1,13.4-9.6c2-2.3,3.8-4.9,5.3-7.8
				c1.5-2.9,2.6-6.1,3.4-9.5c0.8-3.4,1.2-7,1.4-10.6c0.1-3.7,0-7.4-0.5-11.2c-1-7.5-3.8-15.1-9-21.2c-1.3-1.5-2.7-2.9-4.2-4.2
				c-1.5-1.3-3.2-2.5-4.9-3.5c-3.4-2.1-7.2-3.6-11.1-4.6c-3.9-1-7.9-1.7-11.9-1.9c-4-0.3-8.1-0.2-12.1-0.2c-8,0-15.9,0-23.6-0.1
				c-15.3,0-29.5-0.1-41.8-0.1c-12.2,0-22.4-0.1-29.5-0.2C33,16.7,28.9,16.7,28.9,16.7z"/>
		</g>
		<g>
			<linearGradient id="SVGID_6_" gradientUnits="userSpaceOnUse" x1="110.419" y1="109.0277" x2="110.419" y2="13.3939">
				<stop  offset="0" style="stop-color:#FF7F7F"/>
				<stop  offset="0.1494" style="stop-color:#F3742A"/>
				<stop  offset="0.3005" style="stop-color:#FFFF00"/>
				<stop  offset="0.4516" style="stop-color:#00DD03"/>
				<stop  offset="0.5829" style="stop-color:#05C1FF"/>
				<stop  offset="0.734" style="stop-color:#00FFFF"/>
				<stop  offset="0.8818" style="stop-color:#A161E4"/>
				<stop  offset="1" style="stop-color:#000000"/>
			</linearGradient>
			<path fill="url(#SVGID_6_)" d="M28.9,13.9c0,0,4.2,0,11.6-0.1c7.4,0,17.9-0.1,30.5-0.2c12.6,0,27.3-0.1,43.1-0.1
				c7.9,0,16,0,24.3-0.1c4.1,0,8.3,0,12.5,0.5c4.2,0.5,8.4,1.3,12.4,2.7c4,1.4,7.9,3.3,11.3,5.8c1.7,1.2,3.3,2.6,4.8,4.1
				c1.5,1.4,2.9,3.1,4.1,4.8c5,6.8,7.4,15,8.1,22.8c0.7,7.9,0.2,15.6-1.6,22.7c-1.9,7-5.3,13.2-9.7,17.9c-2.2,2.3-4.5,4.3-6.9,5.9
				c-2.4,1.6-4.9,2.8-7.2,3.8c-4.8,2-9.2,2.9-12.8,3.5c-3.6,0.5-6.5,0.6-8.5,0.7c-2,0-3,0-3,0s1.1,0,3-0.1c2-0.1,4.9-0.3,8.5-0.8
				c3.6-0.6,8-1.6,12.7-3.6c4.7-2,9.6-5.1,13.9-9.7c4.3-4.6,7.6-10.7,9.4-17.6c1.8-7,2.2-14.7,1.5-22.4c-0.8-7.8-3.2-15.8-8.1-22.4
				c-2.4-3.3-5.4-6.2-8.8-8.6c-3.4-2.4-7.1-4.2-11.1-5.6c-3.9-1.4-8-2.2-12.2-2.7c-4.1-0.5-8.3-0.5-12.4-0.5c-8.3,0-16.4,0-24.3-0.1
				c-15.8,0-30.5-0.1-43.1-0.1C58.3,14.1,47.8,14,40.5,14C33.1,13.9,28.9,13.9,28.9,13.9z"/>
		</g>
		<g>
			<linearGradient id="SVGID_7_" gradientUnits="userSpaceOnUse" x1="111.6174" y1="111.7923" x2="111.6174" y2="10.6293">
				<stop  offset="0" style="stop-color:#FF7F7F"/>
				<stop  offset="0.1494" style="stop-color:#F3742A"/>
				<stop  offset="0.3005" style="stop-color:#FFFF00"/>
				<stop  offset="0.4516" style="stop-color:#00DD03"/>
				<stop  offset="0.5829" style="stop-color:#05C1FF"/>
				<stop  offset="0.734" style="stop-color:#00FFFF"/>
				<stop  offset="0.8818" style="stop-color:#A161E4"/>
				<stop  offset="1" style="stop-color:#000000"/>
			</linearGradient>
			<path fill="url(#SVGID_7_)" d="M28.9,11.1c0,0,4.3,0,11.9-0.1c7.6,0,18.4-0.1,31.4-0.2c13,0,28.2-0.1,44.4-0.1
				c8.1,0,16.5,0,25.1-0.1c8.5,0,17.4,1.1,25.5,4.5c8.1,3.3,15.1,9.2,19.7,16.5c2.3,3.7,4,7.6,5.1,11.7c1.2,4.1,1.8,8.2,2.1,12.3
				c0.5,8.1-0.1,16.1-2.2,23.3c-1,3.6-2.4,7-4.2,10.1c-1.8,3.1-3.8,5.8-6.1,8.1c-4.6,4.7-9.8,7.9-14.7,9.8c-4.9,2-9.5,2.9-13.2,3.5
				c-3.8,0.5-6.7,0.6-8.8,0.7c-2,0-3.1,0-3.1,0s1.1,0,3.1-0.1c2-0.1,5-0.3,8.8-0.9c3.7-0.6,8.3-1.6,13.1-3.7c4.9-2,10-5.2,14.5-9.9
				c2.2-2.3,4.3-5,6-8.1c1.7-3,3.1-6.4,4.1-9.9c2-7.1,2.6-15.1,2.1-23.1c-0.3-4-1-8.1-2.1-12.1c-1.1-4-2.8-7.9-5.1-11.4
				c-4.5-7.1-11.4-12.9-19.4-16.1c-7.9-3.3-16.6-4.5-25.1-4.5c-8.5,0-16.9,0-25.1-0.1c-16.3,0-31.4-0.1-44.4-0.1
				c-13-0.1-23.8-0.1-31.4-0.2C33.2,11.2,28.9,11.1,28.9,11.1z"/>
		</g>
		<g>
			<linearGradient id="SVGID_8_" gradientUnits="userSpaceOnUse" x1="112.8149" y1="114.5568" x2="112.8149" y2="7.8647">
				<stop  offset="0" style="stop-color:#FF7F7F"/>
				<stop  offset="0.1494" style="stop-color:#F3742A"/>
				<stop  offset="0.3005" style="stop-color:#FFFF00"/>
				<stop  offset="0.4516" style="stop-color:#00DD03"/>
				<stop  offset="0.5829" style="stop-color:#05C1FF"/>
				<stop  offset="0.734" style="stop-color:#00FFFF"/>
				<stop  offset="0.8818" style="stop-color:#A161E4"/>
				<stop  offset="1" style="stop-color:#000000"/>
			</linearGradient>
			<path fill="url(#SVGID_8_)" d="M28.9,8.4c0,0,4.5,0,12.3-0.1c7.8,0,19-0.1,32.4-0.2c13.4,0,29-0.1,45.8-0.1c8.4,0,17-0.1,25.8,0
				c4.4,0.1,8.9,0.6,13.2,1.6c4.4,0.9,8.7,2.3,12.7,4.4c8.1,4,14.9,10.5,19.1,18.3c4.3,7.8,6,16.6,6.4,24.9c0.3,8.4-0.4,16.6-2.7,24
				c-2.3,7.4-6.2,13.8-11,18.5c-4.7,4.8-10.2,8-15.3,10c-5.1,2-9.8,3-13.6,3.6c-3.9,0.6-6.9,0.7-9,0.8c-2.1,0-3.2,0-3.2,0
				s1.1,0,3.2-0.1c2.1-0.1,5.2-0.3,9-0.9c3.8-0.6,8.5-1.7,13.5-3.7c5-2.1,10.3-5.3,15-10c4.7-4.7,8.5-11,10.8-18.3
				c2.2-7.3,3-15.4,2.6-23.8c-0.4-8.3-2.2-16.9-6.4-24.6c-4.2-7.6-10.9-14-18.8-17.9c-3.9-2-8.2-3.4-12.5-4.3
				c-4.3-0.9-8.7-1.4-13.1-1.6c-8.8-0.1-17.4-0.1-25.8-0.1c-16.7,0-32.4-0.1-45.8-0.1C60.1,8.6,49,8.5,41.2,8.4
				C33.4,8.4,28.9,8.4,28.9,8.4z"/>
		</g>
		<g>
			<linearGradient id="SVGID_9_" gradientUnits="userSpaceOnUse" x1="114.0139" y1="117.3214" x2="114.0139" y2="5.1002">
				<stop  offset="0" style="stop-color:#FF7F7F"/>
				<stop  offset="0.1494" style="stop-color:#F3742A"/>
				<stop  offset="0.3005" style="stop-color:#FFFF00"/>
				<stop  offset="0.4516" style="stop-color:#00DD03"/>
				<stop  offset="0.5829" style="stop-color:#05C1FF"/>
				<stop  offset="0.734" style="stop-color:#00FFFF"/>
				<stop  offset="0.8818" style="stop-color:#A161E4"/>
				<stop  offset="1" style="stop-color:#000000"/>
			</linearGradient>
			<path fill="url(#SVGID_9_)" d="M28.9,5.6c0,0,18.4-0.1,45.9-0.3c13.8,0,29.9-0.1,47.1-0.1c4.3,0,8.7,0,13.1,0
				c4.4,0,8.9-0.1,13.5,0.2c4.5,0.3,9.1,1,13.5,2.2c2.2,0.6,4.4,1.3,6.6,2.2c2.1,0.9,4.2,1.9,6.2,3c4,2.3,7.7,5.3,10.8,8.6
				c3.2,3.4,5.7,7.3,7.7,11.4c2,4.1,3.4,8.4,4.3,12.8c0.9,4.4,1.3,8.8,1.4,13.1c0.2,8.6-0.7,17.1-3.3,24.6
				c-2.5,7.5-6.6,14.1-11.6,18.9c-4.9,4.9-10.6,8.1-15.8,10.2c-5.2,2-10.1,3.1-14,3.6c-4,0.6-7.2,0.7-9.3,0.8c-2.2,0-3.3,0-3.3,0
				s1.1,0,3.3-0.1c2.1-0.1,5.3-0.3,9.3-0.9c4-0.6,8.7-1.7,13.9-3.8c5.1-2.1,10.7-5.4,15.5-10.2c4.9-4.8,8.9-11.2,11.4-18.7
				c2.5-7.5,3.4-15.8,3.1-24.4c-0.1-4.3-0.6-8.6-1.5-12.9c-0.9-4.3-2.3-8.6-4.3-12.6c-2-4-4.5-7.8-7.6-11.1
				c-3.1-3.3-6.7-6.2-10.6-8.4c-1.9-1.2-4-2.1-6.1-3c-2.1-0.8-4.3-1.6-6.5-2.2c-4.4-1.2-8.9-1.9-13.4-2.2C144,5.9,139.4,6,135,6
				c-4.4,0-8.8,0-13.1,0c-17.2,0-33.3-0.1-47.1-0.1C47.3,5.7,28.9,5.6,28.9,5.6z"/>
		</g>
		<g>
			<linearGradient id="SVGID_10_" gradientUnits="userSpaceOnUse" x1="115.2113" y1="120.086" x2="115.2113" y2="2.3356">
				<stop  offset="0" style="stop-color:#FF7F7F"/>
				<stop  offset="0.1494" style="stop-color:#F3742A"/>
				<stop  offset="0.3005" style="stop-color:#FFFF00"/>
				<stop  offset="0.4516" style="stop-color:#00DD03"/>
				<stop  offset="0.5829" style="stop-color:#05C1FF"/>
				<stop  offset="0.734" style="stop-color:#00FFFF"/>
				<stop  offset="0.8818" style="stop-color:#A161E4"/>
				<stop  offset="1" style="stop-color:#000000"/>
			</linearGradient>
			<path fill="url(#SVGID_10_)" d="M28.9,2.8c0,0,18.9-0.1,47.2-0.3c14.2,0,30.7-0.1,48.4-0.1c4.4,0,8.9,0,13.5,0
				c4.5,0,9.2,0,13.8,0.5c4.6,0.5,9.3,1.4,13.8,2.9c2.3,0.7,4.5,1.6,6.6,2.6c2.1,1.1,4.3,2.2,6.2,3.5c8,5.2,14.2,13,17.9,21.6
				c3.7,8.6,5,17.9,5.1,26.8c0.1,8.9-1.1,17.5-3.8,25.2c-1.4,3.9-3.1,7.5-5.2,10.7c-2.1,3.2-4.5,6.1-7.1,8.6
				c-5.1,5-11,8.2-16.3,10.3c-5.4,2.1-10.3,3.1-14.4,3.7c-4.1,0.6-7.4,0.7-9.6,0.8c-2.2,0-3.4,0-3.4,0s1.2,0,3.4-0.1
				c2.2-0.1,5.5-0.3,9.5-0.9c4.1-0.6,9-1.7,14.3-3.9c5.3-2.2,11-5.4,16.1-10.4c2.5-2.4,4.9-5.3,6.9-8.5c2-3.2,3.7-6.8,5.1-10.6
				c2.6-7.6,3.7-16.2,3.6-25c-0.1-8.8-1.4-18-5.1-26.5c-3.7-8.5-9.8-16-17.7-21.1c-1.9-1.3-4-2.4-6.1-3.5c-2.1-1-4.3-1.9-6.5-2.6
				c-4.4-1.5-9-2.4-13.6-2.9c-4.6-0.5-9.2-0.6-13.7-0.6c-4.6,0-9.1,0-13.5,0c-17.7,0-34.2-0.1-48.4-0.1C47.8,2.9,28.9,2.8,28.9,2.8z
				"/>
		</g>
	</g>
	<g>
		<path d="M92.8,139.4l-1.2-2c-1-1.7-0.4-3.9,1.3-4.9l14.2-5.8c1.7-1,3.7-2.7,4.7-1l1.2,2c1,1.7-1.2,2.5-2.9,3.5l-12.4,9.6
			C96,141.7,93.8,141.1,92.8,139.4z"/>
		<path d="M112.4,113.9l11.1,18.8c0.5,0.9,0.2,2-0.6,2.5L118,138c-0.9,0.5-2,0.2-2.5-0.6l-11.1-18.8c-0.5-0.9-0.2-2,0.6-2.5l4.9-2.9
			C110.8,112.7,111.9,113,112.4,113.9z"/>
		<g>
			<polygon points="123.6,131.9 112.4,113.2 143.7,94.4 143.3,120 			"/>
			<g>
				<path fill="#FFFFFF" d="M124.3,126.8c0,0,0.3-0.2,0.8-0.5c0.5-0.3,1.2-0.8,2.1-1.3c1.7-1.1,4.1-2.4,6.5-3.7
					c2.4-1.3,4.8-2.5,6.7-3.3c0.9-0.4,1.7-0.7,2.3-1c0.6-0.2,0.9-0.4,0.9-0.4s-0.3,0.2-0.8,0.5c-0.5,0.3-1.2,0.8-2.1,1.3
					c-1.7,1.1-4.1,2.4-6.5,3.7c-2.4,1.3-4.8,2.5-6.7,3.3c-0.9,0.4-1.7,0.7-2.3,1C124.7,126.7,124.3,126.8,124.3,126.8z"/>
			</g>
			<g>
				<path fill="#FFFFFF" d="M130.3,120.5c0,0,0.7-0.6,1.9-1.3c1.2-0.8,2.8-1.7,4.4-2.6c1.6-0.9,3.3-1.7,4.6-2.2
					c1.3-0.5,2.2-0.8,2.2-0.8s-0.7,0.6-1.9,1.3c-1.2,0.8-2.8,1.7-4.4,2.6c-1.6,0.9-3.3,1.7-4.6,2.2
					C131.2,120.2,130.3,120.5,130.3,120.5z"/>
			</g>
			<g>
				<path fill="#FFFFFF" d="M124.2,120.5c0,0,0.3-0.2,0.8-0.5c0.5-0.3,1.2-0.8,2.1-1.3c1.7-1.1,4.1-2.4,6.5-3.7
					c2.4-1.3,4.8-2.5,6.7-3.3c0.9-0.4,1.7-0.7,2.3-1c0.6-0.2,0.9-0.4,0.9-0.4s-0.3,0.2-0.8,0.5c-0.5,0.3-1.2,0.8-2.1,1.3
					c-1.7,1.1-4.1,2.4-6.5,3.7c-2.4,1.3-4.8,2.5-6.7,3.3c-0.9,0.4-1.7,0.7-2.3,1C124.5,120.4,124.2,120.5,124.2,120.5z"/>
			</g>
			<g>
				<path fill="#FFFFFF" d="M129.6,114.5c0,0,0.2-0.2,0.6-0.4c0.4-0.2,0.9-0.6,1.5-1c1.2-0.8,2.9-1.8,4.7-2.7
					c1.7-0.9,3.5-1.8,4.9-2.4c0.7-0.3,1.3-0.5,1.7-0.7c0.4-0.2,0.6-0.2,0.6-0.2s-0.2,0.2-0.6,0.4c-0.4,0.2-0.9,0.6-1.5,1
					c-1.2,0.8-2.9,1.8-4.7,2.7c-1.7,0.9-3.5,1.8-4.9,2.4c-0.7,0.3-1.3,0.5-1.7,0.7C129.8,114.4,129.6,114.5,129.6,114.5z"/>
			</g>
			<g>
				<path fill="#FFFFFF" d="M124.4,114.7c0,0,0.3-0.2,0.8-0.5c0.5-0.3,1.2-0.8,2.1-1.3c1.7-1.1,4.1-2.4,6.5-3.7
					c2.4-1.3,4.8-2.5,6.7-3.3c0.9-0.4,1.7-0.7,2.3-1c0.6-0.2,0.9-0.4,0.9-0.4s-0.3,0.2-0.8,0.5c-0.5,0.3-1.2,0.8-2.1,1.3
					c-1.7,1.1-4.1,2.4-6.5,3.7c-2.4,1.3-4.8,2.5-6.7,3.3c-0.9,0.4-1.7,0.7-2.3,1C124.7,114.6,124.4,114.7,124.4,114.7z"/>
			</g>
			<g>
				<path fill="#FFFFFF" d="M129.2,109.1c0,0,0.2-0.2,0.6-0.4c0.4-0.2,0.9-0.6,1.5-1c1.3-0.8,3.1-1.9,4.9-2.8c1.8-1,3.7-1.8,5.1-2.5
					c0.7-0.3,1.3-0.5,1.7-0.7c0.4-0.2,0.7-0.2,0.7-0.2s-0.2,0.2-0.6,0.4c-0.4,0.2-0.9,0.6-1.5,1c-1.3,0.8-3.1,1.9-4.9,2.8
					c-1.8,1-3.7,1.8-5.1,2.5c-0.7,0.3-1.3,0.5-1.7,0.7C129.4,109,129.2,109.1,129.2,109.1z"/>
			</g>
			<g>
				<path fill="#FFFFFF" d="M124.4,108.4c0,0,0.3-0.2,0.8-0.5c0.5-0.3,1.2-0.8,2.1-1.3c1.7-1.1,4.1-2.4,6.5-3.7
					c2.4-1.3,4.8-2.5,6.7-3.3c0.9-0.4,1.7-0.7,2.3-1c0.6-0.2,0.9-0.4,0.9-0.4s-0.3,0.2-0.8,0.5c-0.5,0.3-1.2,0.8-2.1,1.3
					c-1.7,1.1-4.1,2.4-6.5,3.7c-2.4,1.3-4.8,2.5-6.7,3.3c-0.9,0.4-1.7,0.7-2.3,1C124.7,108.3,124.4,108.4,124.4,108.4z"/>
			</g>
		</g>
		<circle fill="#FFFFFF" cx="97" cy="135.6" r="1.1"/>
	</g>
</g>
<g>
	<path d="M36.3,39.1h2.1v11.1c0,1.5-0.4,2.7-1.3,3.5c-0.9,0.8-2.1,1.3-3.6,1.3c-1.6,0-2.8-0.4-3.6-1.2c-0.9-0.8-1.3-1.9-1.3-3.3h2.1
		c0,0.9,0.2,1.6,0.7,2.1s1.2,0.8,2.1,0.8c0.9,0,1.5-0.3,2.1-0.8c0.5-0.5,0.8-1.3,0.8-2.3V39.1z"/>
	<path d="M50.3,50.6h-6.6l-1.5,4.1h-2.1l6-15.6h1.8l6,15.6h-2.1L50.3,50.6z M44.3,48.9h5.3L47,41.6L44.3,48.9z"/>
	<path d="M60.6,47.7c-1.8-0.5-3.1-1.1-3.9-1.9c-0.8-0.7-1.2-1.7-1.2-2.7c0-1.2,0.5-2.3,1.5-3.1c1-0.8,2.3-1.2,3.8-1.2
		c1.1,0,2,0.2,2.9,0.6c0.8,0.4,1.5,1,2,1.7c0.5,0.7,0.7,1.5,0.7,2.4h-2.1c0-0.9-0.3-1.7-0.9-2.2c-0.6-0.5-1.5-0.8-2.5-0.8
		c-1,0-1.8,0.2-2.4,0.7c-0.6,0.4-0.9,1.1-0.9,1.9c0,0.6,0.3,1.2,0.8,1.6c0.5,0.4,1.5,0.8,2.8,1.2c1.3,0.4,2.3,0.8,3.1,1.2
		c0.7,0.4,1.3,1,1.6,1.5c0.4,0.6,0.5,1.3,0.5,2.1c0,1.3-0.5,2.3-1.5,3c-1,0.8-2.3,1.1-4,1.1c-1.1,0-2.1-0.2-3-0.6
		c-0.9-0.4-1.6-1-2.2-1.7c-0.5-0.7-0.8-1.5-0.8-2.4h2.1c0,0.9,0.3,1.7,1,2.2c0.7,0.5,1.6,0.8,2.8,0.8c1.1,0,1.9-0.2,2.5-0.7
		s0.9-1,0.9-1.8S64,49.4,63.5,49C63,48.5,62,48.1,60.6,47.7z"/>
	<path d="M81.1,47.4c0,1.5-0.3,2.9-0.8,4c-0.5,1.1-1.2,2-2.2,2.6s-2,0.9-3.3,0.9c-1.2,0-2.3-0.3-3.3-0.9c-1-0.6-1.7-1.5-2.2-2.6
		c-0.5-1.1-0.8-2.4-0.8-3.9v-1.1c0-1.5,0.3-2.8,0.8-4s1.3-2,2.2-2.6c1-0.6,2.1-0.9,3.3-0.9c1.3,0,2.4,0.3,3.3,0.9
		c1,0.6,1.7,1.5,2.2,2.6c0.5,1.2,0.8,2.5,0.8,4V47.4z M79,46.4c0-1.9-0.4-3.3-1.1-4.3c-0.7-1-1.8-1.5-3.1-1.5
		c-1.3,0-2.3,0.5-3.1,1.5c-0.7,1-1.1,2.4-1.2,4.1v1.1c0,1.8,0.4,3.2,1.1,4.2c0.8,1,1.8,1.5,3.1,1.5c1.3,0,2.4-0.5,3.1-1.5
		c0.7-1,1.1-2.4,1.1-4.2V46.4z"/>
	<path d="M96.2,54.7h-2.1l-7.9-12.1v12.1h-2.1V39.1h2.1l7.9,12.1V39.1h2.1V54.7z"/>
	<path fill="#39A2DB" d="M33.1,76.2l0.3,2.1l0.4-1.9l3.1-10.9h1.7l3,10.9l0.4,1.9l0.3-2.1l2.4-10.7h2.1l-3.8,15.6h-1.9l-3.2-11.4
		l-0.2-1.2l-0.2,1.2l-3.3,11.4h-1.9l-3.8-15.6h2.1L33.1,76.2z"/>
	<path fill="#39A2DB" d="M58.1,73.9h-6.8v5.5h7.9v1.7h-9.9V65.5h9.8v1.7h-7.8v5h6.8V73.9z"/>
	<path fill="#39A2DB" d="M61.7,81.1V65.5h5.1c1.7,0,3,0.4,3.8,1.1c0.9,0.7,1.3,1.7,1.3,3.1c0,0.7-0.2,1.4-0.6,1.9
		c-0.4,0.6-1,1-1.7,1.3c0.8,0.2,1.5,0.7,2,1.3c0.5,0.7,0.7,1.5,0.7,2.4c0,1.4-0.5,2.5-1.4,3.3s-2.2,1.2-3.9,1.2H61.7z M63.8,72.1
		h3.1c0.9,0,1.6-0.2,2.2-0.7c0.5-0.5,0.8-1.1,0.8-1.8c0-0.9-0.3-1.5-0.8-1.9c-0.5-0.4-1.3-0.6-2.3-0.6h-3.1V72.1z M63.8,73.8v5.6
		h3.4c1,0,1.7-0.2,2.3-0.7c0.6-0.5,0.8-1.2,0.8-2.1c0-1.9-1-2.8-3.1-2.8H63.8z"/>
	<path d="M86.3,81.1V65.5h4.4c1.4,0,2.6,0.3,3.6,0.9s1.9,1.5,2.4,2.6c0.6,1.1,0.9,2.4,0.9,3.8v1c0,1.5-0.3,2.8-0.9,3.9
		c-0.6,1.1-1.4,2-2.4,2.6c-1.1,0.6-2.3,0.9-3.7,0.9H86.3z M88.4,67.1v12.3h2.2c1.6,0,2.8-0.5,3.7-1.5c0.9-1,1.3-2.4,1.3-4.2v-0.9
		c0-1.8-0.4-3.2-1.3-4.1c-0.8-1-2-1.5-3.5-1.5H88.4z"/>
	<path d="M109.6,73.9h-6.8v5.5h7.9v1.7h-9.9V65.5h9.8v1.7h-7.8v5h6.8V73.9z"/>
	<path d="M117.9,74.1c-1.8-0.5-3.1-1.1-3.9-1.9c-0.8-0.7-1.2-1.7-1.2-2.7c0-1.2,0.5-2.3,1.5-3.1c1-0.8,2.3-1.2,3.8-1.2
		c1.1,0,2,0.2,2.9,0.6c0.8,0.4,1.5,1,2,1.7c0.5,0.7,0.7,1.5,0.7,2.4h-2.1c0-0.9-0.3-1.7-0.9-2.2c-0.6-0.5-1.5-0.8-2.5-0.8
		c-1,0-1.8,0.2-2.4,0.7c-0.6,0.4-0.9,1.1-0.9,1.9c0,0.6,0.3,1.2,0.8,1.6c0.5,0.4,1.5,0.8,2.8,1.2c1.3,0.4,2.3,0.8,3.1,1.2
		c0.7,0.4,1.3,1,1.6,1.5c0.4,0.6,0.5,1.3,0.5,2.1c0,1.3-0.5,2.3-1.5,3c-1,0.8-2.3,1.1-4,1.1c-1.1,0-2.1-0.2-3-0.6
		c-0.9-0.4-1.6-1-2.2-1.7c-0.5-0.7-0.8-1.5-0.8-2.4h2.1c0,0.9,0.3,1.7,1,2.2c0.7,0.5,1.6,0.8,2.8,0.8c1.1,0,1.9-0.2,2.5-0.7
		s0.9-1,0.9-1.8s-0.3-1.4-0.8-1.8C120.3,74.9,119.3,74.5,117.9,74.1z"/>
	<path d="M128.5,81.1h-2.1V65.5h2.1V81.1z"/>
	<path d="M143.8,79c-0.5,0.8-1.3,1.3-2.2,1.7c-0.9,0.4-2.1,0.6-3.3,0.6c-1.3,0-2.4-0.3-3.4-0.9c-1-0.6-1.8-1.4-2.3-2.6
		c-0.5-1.1-0.8-2.4-0.8-3.8v-1.4c0-2.4,0.5-4.2,1.6-5.5c1.1-1.3,2.6-1.9,4.6-1.9c1.6,0,2.9,0.4,3.9,1.3c1,0.8,1.6,2,1.8,3.5h-2.1
		c-0.4-2.1-1.6-3.1-3.7-3.1c-1.4,0-2.4,0.5-3.1,1.5c-0.7,1-1.1,2.4-1.1,4.2v1.3c0,1.8,0.4,3.2,1.2,4.2c0.8,1,1.9,1.6,3.3,1.6
		c0.8,0,1.5-0.1,2-0.3c0.6-0.2,1.1-0.5,1.4-0.9V75h-3.6v-1.7h5.7V79z"/>
	<path d="M159.3,81.1h-2.1L149.4,69v12.1h-2.1V65.5h2.1l7.9,12.1V65.5h2.1V81.1z"/>
</g>
<g>
	<path d="M139.4,63.2h-5.6v-0.8l3-3.3c0.4-0.5,0.7-0.9,0.9-1.2s0.2-0.6,0.2-1c0-0.4-0.1-0.8-0.4-1.1s-0.6-0.4-1.1-0.4
		c-0.5,0-1,0.2-1.3,0.5s-0.4,0.7-0.4,1.3h-1.1c0-0.8,0.3-1.4,0.8-1.9s1.2-0.7,2-0.7c0.8,0,1.4,0.2,1.9,0.6s0.7,1,0.7,1.7
		c0,0.8-0.5,1.8-1.6,3l-2.3,2.5h4.3V63.2z"/>
	<path d="M145.9,59.6c0,1.3-0.2,2.2-0.7,2.8s-1.1,0.9-2,0.9c-0.9,0-1.6-0.3-2-0.9s-0.7-1.5-0.7-2.7v-1.4c0-1.3,0.2-2.2,0.7-2.8
		s1.1-0.9,2-0.9c0.9,0,1.6,0.3,2,0.9s0.7,1.5,0.7,2.7V59.6z M144.8,58.1c0-0.9-0.1-1.6-0.4-2s-0.7-0.6-1.2-0.6c-0.6,0-1,0.2-1.2,0.6
		s-0.4,1.1-0.4,1.9v1.7c0,0.9,0.1,1.6,0.4,2s0.7,0.7,1.2,0.7c0.5,0,0.9-0.2,1.2-0.6s0.4-1.1,0.4-2V58.1z"/>
	<path d="M152.9,63.2h-5.6v-0.8l3-3.3c0.4-0.5,0.7-0.9,0.9-1.2s0.2-0.6,0.2-1c0-0.4-0.1-0.8-0.4-1.1s-0.6-0.4-1.1-0.4
		c-0.5,0-1,0.2-1.3,0.5s-0.4,0.7-0.4,1.3h-1.1c0-0.8,0.3-1.4,0.8-1.9s1.2-0.7,2-0.7c0.8,0,1.4,0.2,1.9,0.6s0.7,1,0.7,1.7
		c0,0.8-0.5,1.8-1.6,3l-2.3,2.5h4.3V63.2z"/>
	<path d="M159.6,63.2H154v-0.8l3-3.3c0.4-0.5,0.7-0.9,0.9-1.2s0.2-0.6,0.2-1c0-0.4-0.1-0.8-0.4-1.1s-0.6-0.4-1.1-0.4
		c-0.5,0-1,0.2-1.3,0.5s-0.4,0.7-0.4,1.3h-1.1c0-0.8,0.3-1.4,0.8-1.9s1.2-0.7,2-0.7c0.8,0,1.4,0.2,1.9,0.6s0.7,1,0.7,1.7
		c0,0.8-0.5,1.8-1.6,3l-2.3,2.5h4.3V63.2z"/>
</g>
</svg>
